<svg xmlns="http://www.w3.org/2000/svg" width="475" height="300" viewBox="0 0 475 300" font-family="monospace" font-size="10">
<rect width="100%" height="100%" fill="#fafafa"/>
<text x="6" y="14" fill="#333">image_kind=plan | Floor 2 plan view</text>
<line x1="0.0" y1="0" x2="0.0" y2="300" stroke="#ccc" stroke-width="0.4"/>
<line x1="25.0" y1="0" x2="25.0" y2="300" stroke="#ccc" stroke-width="0.4"/>
<line x1="50.0" y1="0" x2="50.0" y2="300" stroke="#ccc" stroke-width="0.8"/>
<line x1="75.0" y1="0" x2="75.0" y2="300" stroke="#ccc" stroke-width="0.4"/>
<line x1="100.0" y1="0" x2="100.0" y2="300" stroke="#ccc" stroke-width="0.4"/>
<line x1="125.0" y1="0" x2="125.0" y2="300" stroke="#ccc" stroke-width="0.4"/>
<line x1="150.0" y1="0" x2="150.0" y2="300" stroke="#ccc" stroke-width="0.4"/>
<line x1="175.0" y1="0" x2="175.0" y2="300" stroke="#ccc" stroke-width="0.8"/>
<line x1="200.0" y1="0" x2="200.0" y2="300" stroke="#ccc" stroke-width="0.4"/>
<line x1="225.0" y1="0" x2="225.0" y2="300" stroke="#ccc" stroke-width="0.4"/>
<line x1="250.0" y1="0" x2="250.0" y2="300" stroke="#ccc" stroke-width="0.4"/>
<line x1="275.0" y1="0" x2="275.0" y2="300" stroke="#ccc" stroke-width="0.4"/>
<line x1="300.0" y1="0" x2="300.0" y2="300" stroke="#ccc" stroke-width="0.8"/>
<line x1="325.0" y1="0" x2="325.0" y2="300" stroke="#ccc" stroke-width="0.4"/>
<line x1="350.0" y1="0" x2="350.0" y2="300" stroke="#ccc" stroke-width="0.4"/>
<line x1="375.0" y1="0" x2="375.0" y2="300" stroke="#ccc" stroke-width="0.4"/>
<line x1="400.0" y1="0" x2="400.0" y2="300" stroke="#ccc" stroke-width="0.4"/>
<line x1="425.0" y1="0" x2="425.0" y2="300" stroke="#ccc" stroke-width="0.8"/>
<line x1="450.0" y1="0" x2="450.0" y2="300" stroke="#ccc" stroke-width="0.4"/>
<line x1="475.0" y1="0" x2="475.0" y2="300" stroke="#ccc" stroke-width="0.4"/>
<line x1="0" y1="300.0" x2="475" y2="300.0" stroke="#ccc" stroke-width="0.4"/>
<line x1="0" y1="275.0" x2="475" y2="275.0" stroke="#ccc" stroke-width="0.4"/>
<line x1="0" y1="250.0" x2="475" y2="250.0" stroke="#ccc" stroke-width="0.8"/>
<line x1="0" y1="225.0" x2="475" y2="225.0" stroke="#ccc" stroke-width="0.4"/>
<line x1="0" y1="200.0" x2="475" y2="200.0" stroke="#ccc" stroke-width="0.4"/>
<line x1="0" y1="175.0" x2="475" y2="175.0" stroke="#ccc" stroke-width="0.4"/>
<line x1="0" y1="150.0" x2="475" y2="150.0" stroke="#ccc" stroke-width="0.4"/>
<line x1="0" y1="125.0" x2="475" y2="125.0" stroke="#ccc" stroke-width="0.8"/>
<line x1="0" y1="100.0" x2="475" y2="100.0" stroke="#ccc" stroke-width="0.4"/>
<line x1="0" y1="75.0" x2="475" y2="75.0" stroke="#ccc" stroke-width="0.4"/>
<line x1="0" y1="50.0" x2="475" y2="50.0" stroke="#ccc" stroke-width="0.4"/>
<line x1="0" y1="25.0" x2="475" y2="25.0" stroke="#ccc" stroke-width="0.4"/>
<line x1="0" y1="0.0" x2="475" y2="0.0" stroke="#ccc" stroke-width="0.8"/>
<line x1="50.0" y1="250.0" x2="425.0" y2="250.0" stroke="#222" stroke-width="1.5" stroke-linecap="round"/>
<text x="237.5" y="247.0" fill="#666" font-size="8">S1</text>
<line x1="425.0" y1="250.0" x2="425.0" y2="50.0" stroke="#222" stroke-width="1.5" stroke-linecap="round"/>
<text x="425.0" y="147.0" fill="#666" font-size="8">S2</text>
<line x1="425.0" y1="50.0" x2="50.0" y2="50.0" stroke="#222" stroke-width="1.5" stroke-linecap="round"/>
<text x="237.5" y="47.0" fill="#666" font-size="8">S3</text>
<line x1="50.0" y1="50.0" x2="50.0" y2="250.0" stroke="#222" stroke-width="1.5" stroke-linecap="round"/>
<text x="50.0" y="147.0" fill="#666" font-size="8">S4</text>
<line x1="56.00000000000001" y1="125.0" x2="425.0" y2="125.0" stroke="#222" stroke-width="1.5" stroke-linecap="round"/>
<text x="240.50000000000003" y="122.0" fill="#666" font-size="8">S5</text>
<line x1="56.00000000000001" y1="175.0" x2="425.0" y2="175.0" stroke="#222" stroke-width="1.5" stroke-linecap="round"/>
<text x="240.50000000000003" y="172.0" fill="#666" font-size="8">S6</text>
<line x1="237.5" y1="125.0" x2="237.5" y2="50.0" stroke="#222" stroke-width="1.5" stroke-linecap="round"/>
<text x="237.5" y="84.5" fill="#666" font-size="8">S7</text>
<line x1="173.75" y1="250.0" x2="173.75" y2="175.0" stroke="#222" stroke-width="1.5" stroke-linecap="round"/>
<text x="173.75" y="209.5" fill="#666" font-size="8">S8</text>
<line x1="237.5" y1="250.0" x2="237.5" y2="175.0" stroke="#222" stroke-width="1.5" stroke-linecap="round"/>
<text x="237.5" y="209.5" fill="#666" font-size="8">S9</text>
<line x1="301.25" y1="250.0" x2="301.25" y2="175.0" stroke="#222" stroke-width="1.5" stroke-linecap="round"/>
<text x="301.25" y="209.5" fill="#666" font-size="8">S10</text>
<line x1="98.75" y1="50.0" x2="188.75" y2="50.0" stroke="#1f77b4" stroke-width="1.5" stroke-linecap="round"/>
<text x="143.75" y="47.0" fill="#666" font-size="8">S11</text>
<line x1="286.25" y1="50.0" x2="376.25" y2="50.0" stroke="#1f77b4" stroke-width="1.5" stroke-linecap="round"/>
<text x="331.25" y="47.0" fill="#666" font-size="8">S12</text>
<line x1="104.74999999999999" y1="250.0" x2="134.75" y2="250.0" stroke="#1f77b4" stroke-width="1.5" stroke-linecap="round"/>
<text x="119.75" y="247.0" fill="#666" font-size="8">S13</text>
<line x1="182.75" y1="250.0" x2="212.75" y2="250.0" stroke="#1f77b4" stroke-width="1.5" stroke-linecap="round"/>
<text x="197.75" y="247.0" fill="#666" font-size="8">S14</text>
<line x1="262.25" y1="250.0" x2="292.25" y2="250.0" stroke="#1f77b4" stroke-width="1.5" stroke-linecap="round"/>
<text x="277.25" y="247.0" fill="#666" font-size="8">S15</text>
<line x1="340.25" y1="250.0" x2="370.25" y2="250.0" stroke="#1f77b4" stroke-width="1.5" stroke-linecap="round"/>
<text x="355.25" y="247.0" fill="#666" font-size="8">S16</text>
<line x1="50.0" y1="165.0" x2="50.0" y2="135.0" stroke="#1f77b4" stroke-width="1.5" stroke-linecap="round"/>
<text x="50.0" y="147.0" fill="#666" font-size="8">S17</text>
<line x1="425.0" y1="165.0" x2="425.0" y2="135.0" stroke="#1f77b4" stroke-width="1.5" stroke-linecap="round"/>
<text x="425.0" y="147.0" fill="#666" font-size="8">S18</text>
<line x1="50.0" y1="50.0" x2="425.0" y2="50.0" stroke="#2ca02c" stroke-width="0.6" stroke-dasharray="3,2"/>
<text x="237.5" y="50.0" fill="#2ca02c">15000</text>
<line x1="50.0" y1="50.0" x2="98.75" y2="50.0" stroke="#2ca02c" stroke-width="0.6" stroke-dasharray="3,2"/>
<text x="74.375" y="50.0" fill="#2ca02c">1950</text>
<line x1="98.75" y1="50.0" x2="188.75" y2="50.0" stroke="#2ca02c" stroke-width="0.6" stroke-dasharray="3,2"/>
<text x="143.75" y="50.0" fill="#2ca02c">3600</text>
<line x1="188.75" y1="50.0" x2="236.00000000000003" y2="50.0" stroke="#2ca02c" stroke-width="0.6" stroke-dasharray="3,2"/>
<text x="212.37500000000003" y="50.0" fill="#2ca02c">1889</text>
<line x1="236.00000000000003" y1="50.0" x2="283.75" y2="50.0" stroke="#2ca02c" stroke-width="0.6" stroke-dasharray="3,2"/>
<text x="259.875" y="50.0" fill="#2ca02c">1891</text>
<line x1="283.75" y1="50.0" x2="373.75" y2="50.0" stroke="#2ca02c" stroke-width="0.6" stroke-dasharray="3,2"/>
<text x="328.74999999999994" y="50.0" fill="#2ca02c">3600</text>
<line x1="373.75" y1="50.0" x2="425.0" y2="50.0" stroke="#2ca02c" stroke-width="0.6" stroke-dasharray="3,2"/>
<text x="399.375" y="50.0" fill="#2ca02c">1950</text>
<line x1="50.0" y1="250.0" x2="50.0" y2="50.0" stroke="#2ca02c" stroke-width="0.6" stroke-dasharray="3,2"/>
<text x="50.0" y="150.0" fill="#2ca02c">8000</text>
<line x1="50.0" y1="125.0" x2="50.0" y2="50.0" stroke="#2ca02c" stroke-width="0.6" stroke-dasharray="3,2"/>
<text x="50.0" y="87.5" fill="#2ca02c">3000</text>
<line x1="50.0" y1="135.0" x2="50.0" y2="125.0" stroke="#2ca02c" stroke-width="0.6" stroke-dasharray="3,2"/>
<text x="50.0" y="130.0" fill="#2ca02c">400</text>
<line x1="50.0" y1="165.0" x2="50.0" y2="135.0" stroke="#2ca02c" stroke-width="0.6" stroke-dasharray="3,2"/>
<text x="50.0" y="150.0" fill="#2ca02c">1200</text>
<line x1="50.0" y1="175.0" x2="50.0" y2="165.0" stroke="#2ca02c" stroke-width="0.6" stroke-dasharray="3,2"/>
<text x="50.0" y="170.0" fill="#2ca02c">400</text>
<line x1="50.0" y1="250.0" x2="50.0" y2="175.0" stroke="#2ca02c" stroke-width="0.6" stroke-dasharray="3,2"/>
<text x="50.0" y="212.5" fill="#2ca02c">3000</text>
<line x1="425.0" y1="123.5" x2="425.0" y2="50.0" stroke="#2ca02c" stroke-width="0.6" stroke-dasharray="3,2"/>
<text x="425.0" y="86.75000000000003" fill="#2ca02c">2940</text>
<line x1="425.0" y1="132.0" x2="425.0" y2="123.5" stroke="#2ca02c" stroke-width="0.6" stroke-dasharray="3,2"/>
<text x="425.0" y="127.75" fill="#2ca02c">340</text>
<line x1="425.0" y1="162.0" x2="425.0" y2="132.0" stroke="#2ca02c" stroke-width="0.6" stroke-dasharray="3,2"/>
<text x="425.0" y="147.0" fill="#2ca02c">1200</text>
<line x1="425.0" y1="170.5" x2="425.0" y2="162.0" stroke="#2ca02c" stroke-width="0.6" stroke-dasharray="3,2"/>
<text x="425.0" y="166.25" fill="#2ca02c">340</text>
<line x1="425.0" y1="250.0" x2="425.0" y2="176.5" stroke="#2ca02c" stroke-width="0.6" stroke-dasharray="3,2"/>
<text x="425.0" y="213.25" fill="#2ca02c">2940</text>
<line x1="50.0" y1="250.0" x2="104.74999999999999" y2="250.0" stroke="#2ca02c" stroke-width="0.6" stroke-dasharray="3,2"/>
<text x="77.375" y="250.0" fill="#2ca02c">2190</text>
<line x1="104.74999999999999" y1="250.0" x2="134.75" y2="250.0" stroke="#2ca02c" stroke-width="0.6" stroke-dasharray="3,2"/>
<text x="119.75" y="250.0" fill="#2ca02c">1200</text>
<line x1="134.75" y1="250.0" x2="143.75" y2="250.0" stroke="#2ca02c" stroke-width="0.6" stroke-dasharray="3,2"/>
<text x="139.25" y="250.0" fill="#2ca02c">360</text>
<line x1="143.75" y1="250.0" x2="152.75" y2="250.0" stroke="#2ca02c" stroke-width="0.6" stroke-dasharray="3,2"/>
<text x="148.25" y="250.0" fill="#2ca02c">360</text>
<line x1="152.75" y1="250.0" x2="182.75" y2="250.0" stroke="#2ca02c" stroke-width="0.6" stroke-dasharray="3,2"/>
<text x="167.75" y="250.0" fill="#2ca02c">1200</text>
<line x1="182.75" y1="250.0" x2="237.5" y2="250.0" stroke="#2ca02c" stroke-width="0.6" stroke-dasharray="3,2"/>
<text x="210.12499999999997" y="250.0" fill="#2ca02c">2190</text>
<line x1="237.5" y1="250.0" x2="292.25" y2="250.0" stroke="#2ca02c" stroke-width="0.6" stroke-dasharray="3,2"/>
<text x="264.875" y="250.0" fill="#2ca02c">2190</text>
<line x1="292.25" y1="250.0" x2="322.25" y2="250.0" stroke="#2ca02c" stroke-width="0.6" stroke-dasharray="3,2"/>
<text x="307.25" y="250.0" fill="#2ca02c">1200</text>
<line x1="322.25" y1="250.0" x2="331.25" y2="250.0" stroke="#2ca02c" stroke-width="0.6" stroke-dasharray="3,2"/>
<text x="326.75" y="250.0" fill="#2ca02c">360</text>
<line x1="331.25" y1="250.0" x2="340.25" y2="250.0" stroke="#2ca02c" stroke-width="0.6" stroke-dasharray="3,2"/>
<text x="335.75" y="250.0" fill="#2ca02c">360</text>
<line x1="340.25" y1="250.0" x2="370.25" y2="250.0" stroke="#2ca02c" stroke-width="0.6" stroke-dasharray="3,2"/>
<text x="355.25" y="250.0" fill="#2ca02c">1200</text>
<line x1="370.25" y1="250.0" x2="425.0" y2="250.0" stroke="#2ca02c" stroke-width="0.6" stroke-dasharray="3,2"/>
<text x="397.625" y="250.0" fill="#2ca02c">2190</text>
<text x="62.5" y="112.5" fill="#9467bd" font-style="italic">240</text>
<g transform="translate(6,190)">
<rect x="0" y="0" width="10" height="10" fill="#222"/>
<text x="14" y="9" fill="#333">wall (plan)</text>
<rect x="0" y="12" width="10" height="10" fill="#999"/>
<text x="14" y="21" fill="#333">wall_fill (elev)</text>
<rect x="0" y="24" width="10" height="10" fill="#1f77b4"/>
<text x="14" y="33" fill="#333">window</text>
<rect x="0" y="36" width="10" height="10" fill="#000"/>
<text x="14" y="45" fill="#333">outline</text>
<rect x="0" y="48" width="10" height="10" fill="#8c564b"/>
<text x="14" y="57" fill="#333">stair</text>
<rect x="0" y="60" width="10" height="10" fill="#aaa"/>
<text x="14" y="69" fill="#333">other</text>
<rect x="0" y="72" width="10" height="10" fill="#2ca02c"/>
<text x="14" y="81" fill="#333">dimension</text>
<rect x="0" y="84" width="10" height="10" fill="#9467bd"/>
<text x="14" y="93" fill="#333">ocr</text>
</g>
</svg>