<svg xmlns="http://www.w3.org/2000/svg" width="475" height="400" viewBox="0 0 475 400" font-family="monospace" font-size="10">
<rect width="100%" height="100%" fill="#fafafa"/>
<text x="6" y="14" fill="#333">image_kind=elevation | North facade elevation</text>
<line x1="0.0" y1="0" x2="0.0" y2="400" stroke="#ccc" stroke-width="0.4"/>
<line x1="25.0" y1="0" x2="25.0" y2="400" stroke="#ccc" stroke-width="0.4"/>
<line x1="50.0" y1="0" x2="50.0" y2="400" stroke="#ccc" stroke-width="0.8"/>
<line x1="75.0" y1="0" x2="75.0" y2="400" stroke="#ccc" stroke-width="0.4"/>
<line x1="100.0" y1="0" x2="100.0" y2="400" stroke="#ccc" stroke-width="0.4"/>
<line x1="125.0" y1="0" x2="125.0" y2="400" stroke="#ccc" stroke-width="0.4"/>
<line x1="150.0" y1="0" x2="150.0" y2="400" stroke="#ccc" stroke-width="0.4"/>
<line x1="175.0" y1="0" x2="175.0" y2="400" stroke="#ccc" stroke-width="0.8"/>
<line x1="200.0" y1="0" x2="200.0" y2="400" stroke="#ccc" stroke-width="0.4"/>
<line x1="225.0" y1="0" x2="225.0" y2="400" stroke="#ccc" stroke-width="0.4"/>
<line x1="250.0" y1="0" x2="250.0" y2="400" stroke="#ccc" stroke-width="0.4"/>
<line x1="275.0" y1="0" x2="275.0" y2="400" stroke="#ccc" stroke-width="0.4"/>
<line x1="300.0" y1="0" x2="300.0" y2="400" stroke="#ccc" stroke-width="0.8"/>
<line x1="325.0" y1="0" x2="325.0" y2="400" stroke="#ccc" stroke-width="0.4"/>
<line x1="350.0" y1="0" x2="350.0" y2="400" stroke="#ccc" stroke-width="0.4"/>
<line x1="375.0" y1="0" x2="375.0" y2="400" stroke="#ccc" stroke-width="0.4"/>
<line x1="400.0" y1="0" x2="400.0" y2="400" stroke="#ccc" stroke-width="0.4"/>
<line x1="425.0" y1="0" x2="425.0" y2="400" stroke="#ccc" stroke-width="0.8"/>
<line x1="450.0" y1="0" x2="450.0" y2="400" stroke="#ccc" stroke-width="0.4"/>
<line x1="475.0" y1="0" x2="475.0" y2="400" stroke="#ccc" stroke-width="0.4"/>
<line x1="0" y1="400.0" x2="475" y2="400.0" stroke="#ccc" stroke-width="0.4"/>
<line x1="0" y1="375.0" x2="475" y2="375.0" stroke="#ccc" stroke-width="0.4"/>
<line x1="0" y1="350.0" x2="475" y2="350.0" stroke="#ccc" stroke-width="0.8"/>
<line x1="0" y1="325.0" x2="475" y2="325.0" stroke="#ccc" stroke-width="0.4"/>
<line x1="0" y1="300.0" x2="475" y2="300.0" stroke="#ccc" stroke-width="0.4"/>
<line x1="0" y1="275.0" x2="475" y2="275.0" stroke="#ccc" stroke-width="0.4"/>
<line x1="0" y1="250.0" x2="475" y2="250.0" stroke="#ccc" stroke-width="0.4"/>
<line x1="0" y1="225.0" x2="475" y2="225.0" stroke="#ccc" stroke-width="0.8"/>
<line x1="0" y1="200.0" x2="475" y2="200.0" stroke="#ccc" stroke-width="0.4"/>
<line x1="0" y1="175.0" x2="475" y2="175.0" stroke="#ccc" stroke-width="0.4"/>
<line x1="0" y1="150.0" x2="475" y2="150.0" stroke="#ccc" stroke-width="0.4"/>
<line x1="0" y1="125.0" x2="475" y2="125.0" stroke="#ccc" stroke-width="0.4"/>
<line x1="0" y1="100.0" x2="475" y2="100.0" stroke="#ccc" stroke-width="0.8"/>
<line x1="0" y1="75.0" x2="475" y2="75.0" stroke="#ccc" stroke-width="0.4"/>
<line x1="0" y1="50.0" x2="475" y2="50.0" stroke="#ccc" stroke-width="0.4"/>
<line x1="0" y1="25.0" x2="475" y2="25.0" stroke="#ccc" stroke-width="0.4"/>
<line x1="0" y1="0.0" x2="475" y2="0.0" stroke="#ccc" stroke-width="0.4"/>
<rect x="50.0" y="260.0" width="375.0" height="90.0" fill="#999" fill-opacity="0.45" stroke="#999" stroke-width="1"/>
<text x="52.0" y="270.0" fill="#999" font-size="9">S1 (wall_fill)</text>
<rect x="50.0" y="170.00000000000003" width="375.0" height="90.0" fill="#999" fill-opacity="0.45" stroke="#999" stroke-width="1"/>
<text x="52.0" y="180.00000000000003" fill="#999" font-size="9">S2 (wall_fill)</text>
<rect x="50.0" y="50.0" width="375.0" height="120.0" fill="#999" fill-opacity="0.45" stroke="#999" stroke-width="1"/>
<text x="52.0" y="60.0" fill="#999" font-size="9">S3 (wall_fill)</text>
<rect x="85.0" y="280.75" width="59.25" height="44.0" fill="#1f77b4" fill-opacity="0.45" stroke="#1f77b4" stroke-width="1"/>
<text x="87.0" y="290.75" fill="#1f77b4" font-size="9">S4 (window)</text>
<rect x="208.0" y="280.75" width="58.999999999999986" height="44.0" fill="#1f77b4" fill-opacity="0.45" stroke="#1f77b4" stroke-width="1"/>
<text x="210.0" y="290.75" fill="#1f77b4" font-size="9">S5 (window)</text>
<rect x="330.75" y="280.75" width="59.24999999999998" height="44.0" fill="#1f77b4" fill-opacity="0.45" stroke="#1f77b4" stroke-width="1"/>
<text x="332.75" y="290.75" fill="#1f77b4" font-size="9">S6 (window)</text>
<rect x="85.0" y="190.50000000000003" width="43.75" height="44.249999999999986" fill="#1f77b4" fill-opacity="0.45" stroke="#1f77b4" stroke-width="1"/>
<text x="87.0" y="200.50000000000003" fill="#1f77b4" font-size="9">S7 (window)</text>
<rect x="170.0" y="190.50000000000003" width="43.75" height="44.249999999999986" fill="#1f77b4" fill-opacity="0.45" stroke="#1f77b4" stroke-width="1"/>
<text x="172.0" y="200.50000000000003" fill="#1f77b4" font-size="9">S8 (window)</text>
<rect x="261.25" y="190.50000000000003" width="43.75" height="44.249999999999986" fill="#1f77b4" fill-opacity="0.45" stroke="#1f77b4" stroke-width="1"/>
<text x="263.25" y="200.50000000000003" fill="#1f77b4" font-size="9">S9 (window)</text>
<rect x="346.25" y="190.50000000000003" width="43.75" height="44.249999999999986" fill="#1f77b4" fill-opacity="0.45" stroke="#1f77b4" stroke-width="1"/>
<text x="348.25" y="200.50000000000003" fill="#1f77b4" font-size="9">S10 (window)</text>
<rect x="85.0" y="80.25" width="305.0" height="63.99999999999997" fill="#1f77b4" fill-opacity="0.45" stroke="#1f77b4" stroke-width="1"/>
<text x="87.0" y="90.25" fill="#1f77b4" font-size="9">S11 (window)</text>
<line x1="50.0" y1="260.0" x2="85.0" y2="260.0" stroke="#2ca02c" stroke-width="0.6" stroke-dasharray="3,2"/>
<text x="67.5" y="260.0" fill="#2ca02c">1.40</text>
<line x1="85.0" y1="260.0" x2="128.75" y2="260.0" stroke="#2ca02c" stroke-width="0.6" stroke-dasharray="3,2"/>
<text x="106.87500000000001" y="260.0" fill="#2ca02c">1.75</text>
<line x1="128.75" y1="260.0" x2="170.0" y2="260.0" stroke="#2ca02c" stroke-width="0.6" stroke-dasharray="3,2"/>
<text x="149.375" y="260.0" fill="#2ca02c">1.65</text>
<line x1="170.0" y1="260.0" x2="213.75000000000003" y2="260.0" stroke="#2ca02c" stroke-width="0.6" stroke-dasharray="3,2"/>
<text x="191.875" y="260.0" fill="#2ca02c">1.75</text>
<line x1="213.75000000000003" y1="260.0" x2="261.25" y2="260.0" stroke="#2ca02c" stroke-width="0.6" stroke-dasharray="3,2"/>
<text x="237.5" y="260.0" fill="#2ca02c">1.90</text>
<line x1="261.25" y1="260.0" x2="305.0" y2="260.0" stroke="#2ca02c" stroke-width="0.6" stroke-dasharray="3,2"/>
<text x="283.125" y="260.0" fill="#2ca02c">1.75</text>
<line x1="305.0" y1="260.0" x2="346.25" y2="260.0" stroke="#2ca02c" stroke-width="0.6" stroke-dasharray="3,2"/>
<text x="325.62499999999994" y="260.0" fill="#2ca02c">1.65</text>
<line x1="346.25" y1="260.0" x2="390.0" y2="260.0" stroke="#2ca02c" stroke-width="0.6" stroke-dasharray="3,2"/>
<text x="368.125" y="260.0" fill="#2ca02c">1.75</text>
<line x1="390.0" y1="260.0" x2="425.0" y2="260.0" stroke="#2ca02c" stroke-width="0.6" stroke-dasharray="3,2"/>
<text x="407.5" y="260.0" fill="#2ca02c">1.40</text>
<g transform="translate(6,290)">
<rect x="0" y="0" width="10" height="10" fill="#222"/>
<text x="14" y="9" fill="#333">wall (plan)</text>
<rect x="0" y="12" width="10" height="10" fill="#999"/>
<text x="14" y="21" fill="#333">wall_fill (elev)</text>
<rect x="0" y="24" width="10" height="10" fill="#1f77b4"/>
<text x="14" y="33" fill="#333">window</text>
<rect x="0" y="36" width="10" height="10" fill="#000"/>
<text x="14" y="45" fill="#333">outline</text>
<rect x="0" y="48" width="10" height="10" fill="#8c564b"/>
<text x="14" y="57" fill="#333">stair</text>
<rect x="0" y="60" width="10" height="10" fill="#aaa"/>
<text x="14" y="69" fill="#333">other</text>
<rect x="0" y="72" width="10" height="10" fill="#2ca02c"/>
<text x="14" y="81" fill="#333">dimension</text>
<rect x="0" y="84" width="10" height="10" fill="#9467bd"/>
<text x="14" y="93" fill="#333">ocr</text>
</g>
</svg>