<svg xmlns="http://www.w3.org/2000/svg" width="325" height="378" viewBox="0 0 325 378" font-family="monospace" font-size="10">
<rect width="100%" height="100%" fill="#fafafa"/>
<text x="6" y="14" fill="#333">image_kind=plan | test1 - Turkish villa 100 m2 (2+1), single-story plan</text>
<line x1="0.0" y1="0" x2="0.0" y2="378" stroke="#ccc" stroke-width="0.4"/>
<line x1="25.0" y1="0" x2="25.0" y2="378" stroke="#ccc" stroke-width="0.4"/>
<line x1="50.0" y1="0" x2="50.0" y2="378" stroke="#ccc" stroke-width="0.8"/>
<line x1="75.0" y1="0" x2="75.0" y2="378" stroke="#ccc" stroke-width="0.4"/>
<line x1="100.0" y1="0" x2="100.0" y2="378" stroke="#ccc" stroke-width="0.4"/>
<line x1="125.0" y1="0" x2="125.0" y2="378" stroke="#ccc" stroke-width="0.4"/>
<line x1="150.0" y1="0" x2="150.0" y2="378" stroke="#ccc" stroke-width="0.4"/>
<line x1="175.0" y1="0" x2="175.0" y2="378" stroke="#ccc" stroke-width="0.8"/>
<line x1="200.0" y1="0" x2="200.0" y2="378" stroke="#ccc" stroke-width="0.4"/>
<line x1="225.0" y1="0" x2="225.0" y2="378" stroke="#ccc" stroke-width="0.4"/>
<line x1="250.0" y1="0" x2="250.0" y2="378" stroke="#ccc" stroke-width="0.4"/>
<line x1="275.0" y1="0" x2="275.0" y2="378" stroke="#ccc" stroke-width="0.4"/>
<line x1="300.0" y1="0" x2="300.0" y2="378" stroke="#ccc" stroke-width="0.8"/>
<line x1="325.0" y1="0" x2="325.0" y2="378" stroke="#ccc" stroke-width="0.4"/>
<line x1="0" y1="378.0" x2="325" y2="378.0" stroke="#ccc" stroke-width="0.4"/>
<line x1="0" y1="353.0" x2="325" y2="353.0" stroke="#ccc" stroke-width="0.4"/>
<line x1="0" y1="328.0" x2="325" y2="328.0" stroke="#ccc" stroke-width="0.8"/>
<line x1="0" y1="303.0" x2="325" y2="303.0" stroke="#ccc" stroke-width="0.4"/>
<line x1="0" y1="278.0" x2="325" y2="278.0" stroke="#ccc" stroke-width="0.4"/>
<line x1="0" y1="253.0" x2="325" y2="253.0" stroke="#ccc" stroke-width="0.4"/>
<line x1="0" y1="228.0" x2="325" y2="228.0" stroke="#ccc" stroke-width="0.4"/>
<line x1="0" y1="203.0" x2="325" y2="203.0" stroke="#ccc" stroke-width="0.8"/>
<line x1="0" y1="178.0" x2="325" y2="178.0" stroke="#ccc" stroke-width="0.4"/>
<line x1="0" y1="153.0" x2="325" y2="153.0" stroke="#ccc" stroke-width="0.4"/>
<line x1="0" y1="128.0" x2="325" y2="128.0" stroke="#ccc" stroke-width="0.4"/>
<line x1="0" y1="103.0" x2="325" y2="103.0" stroke="#ccc" stroke-width="0.4"/>
<line x1="0" y1="78.0" x2="325" y2="78.0" stroke="#ccc" stroke-width="0.8"/>
<line x1="0" y1="53.0" x2="325" y2="53.0" stroke="#ccc" stroke-width="0.4"/>
<line x1="0" y1="28.0" x2="325" y2="28.0" stroke="#ccc" stroke-width="0.4"/>
<line x1="0" y1="3.0" x2="325" y2="3.0" stroke="#ccc" stroke-width="0.4"/>
<line x1="50.0" y1="265.5" x2="275.0" y2="265.5" stroke="#222" stroke-width="1.5" stroke-linecap="round"/>
<text x="162.5" y="262.5" fill="#666" font-size="8">S1</text>
<line x1="50.0" y1="50.0" x2="275.0" y2="50.0" stroke="#222" stroke-width="1.5" stroke-linecap="round"/>
<text x="162.5" y="47.0" fill="#666" font-size="8">S2</text>
<line x1="50.0" y1="265.5" x2="50.0" y2="50.0" stroke="#222" stroke-width="1.5" stroke-linecap="round"/>
<text x="50.0" y="154.75000000000003" fill="#666" font-size="8">S3</text>
<line x1="275.0" y1="265.5" x2="275.0" y2="50.0" stroke="#222" stroke-width="1.5" stroke-linecap="round"/>
<text x="275.0" y="154.75000000000003" fill="#666" font-size="8">S4</text>
<line x1="50.0" y1="328.0" x2="275.0" y2="328.0" stroke="#222" stroke-width="1.5" stroke-linecap="round"/>
<text x="162.5" y="325.0" fill="#666" font-size="8">S5</text>
<line x1="50.0" y1="328.0" x2="50.0" y2="265.5" stroke="#222" stroke-width="1.5" stroke-linecap="round"/>
<text x="50.0" y="293.75" fill="#666" font-size="8">S6</text>
<line x1="275.0" y1="328.0" x2="275.0" y2="265.5" stroke="#222" stroke-width="1.5" stroke-linecap="round"/>
<text x="275.0" y="293.75" fill="#666" font-size="8">S7</text>
<line x1="50.0" y1="153.5" x2="275.0" y2="153.5" stroke="#222" stroke-width="1.5" stroke-linecap="round"/>
<text x="162.5" y="150.5" fill="#666" font-size="8">S8</text>
<line x1="50.0" y1="119.5" x2="158.75" y2="119.5" stroke="#222" stroke-width="1.5" stroke-linecap="round"/>
<text x="104.375" y="116.5" fill="#666" font-size="8">S9</text>
<line x1="158.75" y1="153.5" x2="158.75" y2="50.0" stroke="#222" stroke-width="1.5" stroke-linecap="round"/>
<text x="158.75" y="98.75" fill="#666" font-size="8">S10</text>
<line x1="158.75" y1="119.5" x2="204.99999999999997" y2="119.5" stroke="#222" stroke-width="1.5" stroke-linecap="round"/>
<text x="181.875" y="116.5" fill="#666" font-size="8">S11</text>
<line x1="204.99999999999997" y1="153.5" x2="204.99999999999997" y2="50.0" stroke="#222" stroke-width="1.5" stroke-linecap="round"/>
<text x="204.99999999999997" y="98.75" fill="#666" font-size="8">S12</text>
<line x1="204.99999999999997" y1="109.25" x2="275.0" y2="109.25" stroke="#222" stroke-width="1.5" stroke-linecap="round"/>
<text x="240.0" y="106.25" fill="#666" font-size="8">S13</text>
<line x1="204.99999999999997" y1="153.5" x2="275.0" y2="153.5" stroke="#222" stroke-width="1.5" stroke-linecap="round"/>
<text x="240.0" y="150.5" fill="#666" font-size="8">S14</text>
<line x1="95.0" y1="265.5" x2="145.0" y2="265.5" stroke="#1f77b4" stroke-width="1.5" stroke-linecap="round"/>
<text x="120.0" y="262.5" fill="#666" font-size="8">S15</text>
<line x1="185.0" y1="265.5" x2="235.0" y2="265.5" stroke="#1f77b4" stroke-width="1.5" stroke-linecap="round"/>
<text x="210.0" y="262.5" fill="#666" font-size="8">S16</text>
<line x1="50.0" y1="95.5" x2="50.0" y2="65.5" stroke="#1f77b4" stroke-width="1.5" stroke-linecap="round"/>
<text x="50.0" y="77.5" fill="#666" font-size="8">S17</text>
<line x1="82.5" y1="50.0" x2="112.5" y2="50.0" stroke="#1f77b4" stroke-width="1.5" stroke-linecap="round"/>
<text x="97.5" y="47.0" fill="#666" font-size="8">S18</text>
<line x1="187.5" y1="50.0" x2="217.49999999999997" y2="50.0" stroke="#1f77b4" stroke-width="1.5" stroke-linecap="round"/>
<text x="202.5" y="47.0" fill="#666" font-size="8">S19</text>
<line x1="275.0" y1="132.99999999999997" x2="275.0" y2="118.0" stroke="#1f77b4" stroke-width="1.5" stroke-linecap="round"/>
<text x="275.0" y="122.5" fill="#666" font-size="8">S20</text>
<line x1="275.0" y1="240.5" x2="275.0" y2="210.5" stroke="#1f77b4" stroke-width="1.5" stroke-linecap="round"/>
<text x="275.0" y="222.5" fill="#666" font-size="8">S21</text>
<line x1="50.0" y1="50.0" x2="275.0" y2="50.0" stroke="#2ca02c" stroke-width="0.6" stroke-dasharray="3,2"/>
<text x="162.5" y="50.0" fill="#2ca02c">900</text>
<line x1="50.0" y1="50.0" x2="158.75" y2="50.0" stroke="#2ca02c" stroke-width="0.6" stroke-dasharray="3,2"/>
<text x="104.375" y="50.0" fill="#2ca02c">435</text>
<line x1="158.75" y1="50.0" x2="275.0" y2="50.0" stroke="#2ca02c" stroke-width="0.6" stroke-dasharray="3,2"/>
<text x="216.87500000000003" y="50.0" fill="#2ca02c">485</text>
<line x1="50.0" y1="328.0" x2="275.0" y2="328.0" stroke="#2ca02c" stroke-width="0.6" stroke-dasharray="3,2"/>
<text x="162.5" y="328.0" fill="#2ca02c">900</text>
<line x1="50.0" y1="328.0" x2="50.0" y2="50.0" stroke="#2ca02c" stroke-width="0.6" stroke-dasharray="3,2"/>
<text x="50.0" y="189.0" fill="#2ca02c">1111.5</text>
<line x1="50.0" y1="119.5" x2="50.0" y2="50.0" stroke="#2ca02c" stroke-width="0.6" stroke-dasharray="3,2"/>
<text x="50.0" y="84.75" fill="#2ca02c">277</text>
<line x1="50.0" y1="153.5" x2="50.0" y2="119.5" stroke="#2ca02c" stroke-width="0.6" stroke-dasharray="3,2"/>
<text x="50.0" y="136.5" fill="#2ca02c">136.26</text>
<line x1="50.0" y1="265.5" x2="50.0" y2="153.5" stroke="#2ca02c" stroke-width="0.6" stroke-dasharray="3,2"/>
<text x="50.0" y="209.5" fill="#2ca02c">448.24</text>
<line x1="50.0" y1="328.0" x2="50.0" y2="265.5" stroke="#2ca02c" stroke-width="0.6" stroke-dasharray="3,2"/>
<text x="50.0" y="296.75" fill="#2ca02c">250</text>
<line x1="275.0" y1="328.0" x2="275.0" y2="50.0" stroke="#2ca02c" stroke-width="0.6" stroke-dasharray="3,2"/>
<text x="275.0" y="189.0" fill="#2ca02c">1111.5</text>
<line x1="275.0" y1="109.25" x2="275.0" y2="50.0" stroke="#2ca02c" stroke-width="0.6" stroke-dasharray="3,2"/>
<text x="275.0" y="79.62500000000006" fill="#2ca02c">227</text>
<line x1="275.0" y1="154.49999999999997" x2="275.0" y2="109.25" stroke="#2ca02c" stroke-width="0.6" stroke-dasharray="3,2"/>
<text x="275.0" y="131.87499999999997" fill="#2ca02c">181</text>
<line x1="275.0" y1="265.5" x2="275.0" y2="154.49999999999997" stroke="#2ca02c" stroke-width="0.6" stroke-dasharray="3,2"/>
<text x="275.0" y="209.99999999999997" fill="#2ca02c">443.5</text>
<line x1="275.0" y1="328.0" x2="275.0" y2="265.5" stroke="#2ca02c" stroke-width="0.6" stroke-dasharray="3,2"/>
<text x="275.0" y="296.75" fill="#2ca02c">250</text>
<text x="105.0" y="85.5" fill="#9467bd" font-style="italic">Yatak Odasi
10,0 m2</text>
<text x="195.0" y="83.0" fill="#9467bd" font-style="italic">Yatak Odasi
10,0 m2</text>
<text x="137.5" y="138.0" fill="#9467bd" font-style="italic">Hol
7,3 m2</text>
<text x="240.0" y="143.0" fill="#9467bd" font-style="italic">Banyo
5,5 m2</text>
<text x="217.49999999999997" y="125.5" fill="#9467bd" font-style="italic">Camasir Mak.</text>
<text x="170.0" y="215.5" fill="#9467bd" font-style="italic">Yasama Mekani
37,3 m2</text>
<text x="145.0" y="300.5" fill="#9467bd" font-style="italic">Veranda
22,5 m2</text>
<text x="237.5" y="318.0" fill="#9467bd" font-style="italic">100,0 m2
2 + 1</text>
<g transform="translate(6,268)">
<rect x="0" y="0" width="10" height="10" fill="#222"/>
<text x="14" y="9" fill="#333">wall (plan)</text>
<rect x="0" y="12" width="10" height="10" fill="#999"/>
<text x="14" y="21" fill="#333">wall_fill (elev)</text>
<rect x="0" y="24" width="10" height="10" fill="#1f77b4"/>
<text x="14" y="33" fill="#333">window</text>
<rect x="0" y="36" width="10" height="10" fill="#000"/>
<text x="14" y="45" fill="#333">outline</text>
<rect x="0" y="48" width="10" height="10" fill="#8c564b"/>
<text x="14" y="57" fill="#333">stair</text>
<rect x="0" y="60" width="10" height="10" fill="#aaa"/>
<text x="14" y="69" fill="#333">other</text>
<rect x="0" y="72" width="10" height="10" fill="#2ca02c"/>
<text x="14" y="81" fill="#333">dimension</text>
<rect x="0" y="84" width="10" height="10" fill="#9467bd"/>
<text x="14" y="93" fill="#333">ocr</text>
</g>
</svg>