<svg xmlns="http://www.w3.org/2000/svg" width="321" height="346" viewBox="0 0 321 346" font-family="monospace" font-size="10">
<rect width="100%" height="100%" fill="#fafafa"/>
<text x="6" y="14" fill="#333">image_kind=plan | test4 - Turkish villa 82 m2 (2+1) with canted SW bay, single-story plan</text>
<line x1="0.0" y1="0" x2="0.0" y2="346" stroke="#ccc" stroke-width="0.4"/>
<line x1="25.0" y1="0" x2="25.0" y2="346" stroke="#ccc" stroke-width="0.4"/>
<line x1="50.0" y1="0" x2="50.0" y2="346" stroke="#ccc" stroke-width="0.8"/>
<line x1="75.0" y1="0" x2="75.0" y2="346" stroke="#ccc" stroke-width="0.4"/>
<line x1="100.0" y1="0" x2="100.0" y2="346" stroke="#ccc" stroke-width="0.4"/>
<line x1="125.0" y1="0" x2="125.0" y2="346" stroke="#ccc" stroke-width="0.4"/>
<line x1="150.0" y1="0" x2="150.0" y2="346" stroke="#ccc" stroke-width="0.4"/>
<line x1="175.0" y1="0" x2="175.0" y2="346" stroke="#ccc" stroke-width="0.8"/>
<line x1="200.0" y1="0" x2="200.0" y2="346" stroke="#ccc" stroke-width="0.4"/>
<line x1="225.0" y1="0" x2="225.0" y2="346" stroke="#ccc" stroke-width="0.4"/>
<line x1="250.0" y1="0" x2="250.0" y2="346" stroke="#ccc" stroke-width="0.4"/>
<line x1="275.0" y1="0" x2="275.0" y2="346" stroke="#ccc" stroke-width="0.4"/>
<line x1="300.0" y1="0" x2="300.0" y2="346" stroke="#ccc" stroke-width="0.8"/>
<line x1="0" y1="326.0" x2="321" y2="326.0" stroke="#ccc" stroke-width="0.4"/>
<line x1="0" y1="301.0" x2="321" y2="301.0" stroke="#ccc" stroke-width="0.4"/>
<line x1="0" y1="276.0" x2="321" y2="276.0" stroke="#ccc" stroke-width="0.8"/>
<line x1="0" y1="251.0" x2="321" y2="251.0" stroke="#ccc" stroke-width="0.4"/>
<line x1="0" y1="226.0" x2="321" y2="226.0" stroke="#ccc" stroke-width="0.4"/>
<line x1="0" y1="201.0" x2="321" y2="201.0" stroke="#ccc" stroke-width="0.4"/>
<line x1="0" y1="176.0" x2="321" y2="176.0" stroke="#ccc" stroke-width="0.4"/>
<line x1="0" y1="151.0" x2="321" y2="151.0" stroke="#ccc" stroke-width="0.8"/>
<line x1="0" y1="125.99999999999997" x2="321" y2="125.99999999999997" stroke="#ccc" stroke-width="0.4"/>
<line x1="0" y1="100.99999999999997" x2="321" y2="100.99999999999997" stroke="#ccc" stroke-width="0.4"/>
<line x1="0" y1="76.0" x2="321" y2="76.0" stroke="#ccc" stroke-width="0.4"/>
<line x1="0" y1="51.0" x2="321" y2="51.0" stroke="#ccc" stroke-width="0.4"/>
<line x1="0" y1="26.0" x2="321" y2="26.0" stroke="#ccc" stroke-width="0.8"/>
<line x1="0" y1="1.0" x2="321" y2="1.0" stroke="#ccc" stroke-width="0.4"/>
<polyline points="50.0,49.74999999999994 271.25,49.74999999999994 271.25,276.0 91.25,276.0 50.0,238.5" fill="#222" fill-opacity="0.2" stroke="#222" stroke-width="1.5" stroke-linejoin="round"/>
<text x="271.25" y="273.0" fill="#666" font-size="8">S1</text>
<line x1="50.0" y1="147.25" x2="271.25" y2="147.25" stroke="#222" stroke-width="1.5" stroke-linecap="round"/>
<text x="160.625" y="144.25" fill="#666" font-size="8">S2</text>
<line x1="128.75" y1="147.25" x2="128.75" y2="49.74999999999994" stroke="#222" stroke-width="1.5" stroke-linecap="round"/>
<text x="128.75" y="95.5" fill="#666" font-size="8">S3</text>
<line x1="176.5" y1="147.25" x2="176.5" y2="49.74999999999994" stroke="#222" stroke-width="1.5" stroke-linecap="round"/>
<text x="176.5" y="95.5" fill="#666" font-size="8">S4</text>
<line x1="145.0" y1="276.0" x2="145.0" y2="231.5" stroke="#222" stroke-width="1.5" stroke-linecap="round"/>
<text x="145.0" y="250.75" fill="#666" font-size="8">S5</text>
<line x1="145.0" y1="231.5" x2="271.25" y2="231.5" stroke="#222" stroke-width="1.5" stroke-linecap="round"/>
<text x="208.12499999999997" y="228.5" fill="#666" font-size="8">S6</text>
<line x1="75.0" y1="49.74999999999994" x2="105.0" y2="49.74999999999994" stroke="#1f77b4" stroke-width="1.5" stroke-linecap="round"/>
<text x="90.0" y="46.74999999999994" fill="#666" font-size="8">S10</text>
<line x1="50.0" y1="113.49999999999997" x2="50.0" y2="83.5" stroke="#1f77b4" stroke-width="1.5" stroke-linecap="round"/>
<text x="50.0" y="95.50000000000003" fill="#666" font-size="8">S11</text>
<line x1="212.5" y1="49.74999999999994" x2="242.49999999999997" y2="49.74999999999994" stroke="#1f77b4" stroke-width="1.5" stroke-linecap="round"/>
<text x="227.5" y="46.74999999999994" fill="#666" font-size="8">S12</text>
<line x1="271.25" y1="125.99999999999997" x2="271.25" y2="100.99999999999997" stroke="#1f77b4" stroke-width="1.5" stroke-linecap="round"/>
<text x="271.25" y="110.49999999999997" fill="#666" font-size="8">S13</text>
<line x1="148.75" y1="49.74999999999994" x2="163.75" y2="49.74999999999994" stroke="#1f77b4" stroke-width="1.5" stroke-linecap="round"/>
<text x="156.25" y="46.74999999999994" fill="#666" font-size="8">S14</text>
<line x1="175.0" y1="231.5" x2="235.0" y2="231.5" stroke="#1f77b4" stroke-width="1.5" stroke-linecap="round"/>
<text x="204.99999999999997" y="228.5" fill="#666" font-size="8">S19</text>
<line x1="78.75" y1="263.5" x2="88.75" y2="272.25" stroke="#1f77b4" stroke-width="1.5" stroke-linecap="round"/>
<text x="83.75" y="264.875" fill="#666" font-size="8">S20</text>
<line x1="65.0" y1="252.25" x2="78.75" y2="263.5" stroke="#1f77b4" stroke-width="1.5" stroke-linecap="round"/>
<text x="71.875" y="254.875" fill="#666" font-size="8">S21</text>
<line x1="53.75" y1="242.25" x2="65.0" y2="252.25" stroke="#1f77b4" stroke-width="1.5" stroke-linecap="round"/>
<text x="59.375" y="244.25" fill="#666" font-size="8">S22</text>
<line x1="50.0" y1="49.74999999999994" x2="271.25" y2="49.74999999999994" stroke="#2ca02c" stroke-width="0.6" stroke-dasharray="3,2"/>
<text x="160.625" y="49.74999999999994" fill="#2ca02c">885</text>
<line x1="50.0" y1="49.74999999999994" x2="128.75" y2="49.74999999999994" stroke="#2ca02c" stroke-width="0.6" stroke-dasharray="3,2"/>
<text x="89.375" y="49.74999999999994" fill="#2ca02c">315</text>
<line x1="128.75" y1="49.74999999999994" x2="176.5" y2="49.74999999999994" stroke="#2ca02c" stroke-width="0.6" stroke-dasharray="3,2"/>
<text x="152.625" y="49.74999999999994" fill="#2ca02c">191</text>
<line x1="176.5" y1="49.74999999999994" x2="271.25" y2="49.74999999999994" stroke="#2ca02c" stroke-width="0.6" stroke-dasharray="3,2"/>
<text x="223.875" y="49.74999999999994" fill="#2ca02c">379</text>
<line x1="50.0" y1="276.0" x2="50.0" y2="49.74999999999994" stroke="#2ca02c" stroke-width="0.6" stroke-dasharray="3,2"/>
<text x="50.0" y="162.875" fill="#2ca02c">905</text>
<line x1="50.0" y1="147.25" x2="50.0" y2="49.74999999999994" stroke="#2ca02c" stroke-width="0.6" stroke-dasharray="3,2"/>
<text x="50.0" y="98.5" fill="#2ca02c">390</text>
<line x1="50.0" y1="276.0" x2="50.0" y2="147.25" stroke="#2ca02c" stroke-width="0.6" stroke-dasharray="3,2"/>
<text x="50.0" y="211.625" fill="#2ca02c">515</text>
<line x1="271.25" y1="276.0" x2="271.25" y2="49.74999999999994" stroke="#2ca02c" stroke-width="0.6" stroke-dasharray="3,2"/>
<text x="271.25" y="162.875" fill="#2ca02c">905</text>
<line x1="271.25" y1="147.25" x2="271.25" y2="49.74999999999994" stroke="#2ca02c" stroke-width="0.6" stroke-dasharray="3,2"/>
<text x="271.25" y="98.5" fill="#2ca02c">390</text>
<line x1="271.25" y1="231.5" x2="271.25" y2="147.25" stroke="#2ca02c" stroke-width="0.6" stroke-dasharray="3,2"/>
<text x="271.25" y="189.375" fill="#2ca02c">337</text>
<line x1="271.25" y1="276.0" x2="271.25" y2="231.5" stroke="#2ca02c" stroke-width="0.6" stroke-dasharray="3,2"/>
<text x="271.25" y="253.75" fill="#2ca02c">178</text>
<line x1="50.0" y1="276.0" x2="145.0" y2="276.0" stroke="#2ca02c" stroke-width="0.6" stroke-dasharray="3,2"/>
<text x="97.5" y="276.0" fill="#2ca02c">380</text>
<line x1="145.0" y1="276.0" x2="271.25" y2="276.0" stroke="#2ca02c" stroke-width="0.6" stroke-dasharray="3,2"/>
<text x="208.12499999999997" y="276.0" fill="#2ca02c">505</text>
<text x="87.5" y="100.99999999999997" fill="#9467bd" font-style="italic">Yatak Odasi
12,2 m2</text>
<text x="152.5" y="81.0" fill="#9467bd" font-style="italic">Banyo
4,4 m2</text>
<text x="222.5" y="100.99999999999997" fill="#9467bd" font-style="italic">Yatak Odasi
13,8 m2</text>
<text x="135.0" y="191.00000000000003" fill="#9467bd" font-style="italic">Yasam Alani
35,5 m2</text>
<text x="200.0" y="253.5" fill="#9467bd" font-style="italic">Veranda
9,0 m2</text>
<text x="232.50000000000003" y="296.0" fill="#9467bd" font-style="italic">82,0 m2
2 + 1</text>
<g transform="translate(6,236)">
<rect x="0" y="0" width="10" height="10" fill="#222"/>
<text x="14" y="9" fill="#333">wall (plan)</text>
<rect x="0" y="12" width="10" height="10" fill="#999"/>
<text x="14" y="21" fill="#333">wall_fill (elev)</text>
<rect x="0" y="24" width="10" height="10" fill="#1f77b4"/>
<text x="14" y="33" fill="#333">window</text>
<rect x="0" y="36" width="10" height="10" fill="#000"/>
<text x="14" y="45" fill="#333">outline</text>
<rect x="0" y="48" width="10" height="10" fill="#8c564b"/>
<text x="14" y="57" fill="#333">stair</text>
<rect x="0" y="60" width="10" height="10" fill="#aaa"/>
<text x="14" y="69" fill="#333">other</text>
<rect x="0" y="72" width="10" height="10" fill="#2ca02c"/>
<text x="14" y="81" fill="#333">dimension</text>
<rect x="0" y="84" width="10" height="10" fill="#9467bd"/>
<text x="14" y="93" fill="#333">ocr</text>
</g>
</svg>