<svg xmlns="http://www.w3.org/2000/svg" width="300" height="265" viewBox="0 0 300 265" font-family="monospace" font-size="10">
<rect width="100%" height="100%" fill="#fafafa"/>
<text x="6" y="14" fill="#333">image_kind=elevation | East elevation</text>
<line x1="0.0" y1="0" x2="0.0" y2="265" stroke="#ccc" stroke-width="0.4"/>
<line x1="25.0" y1="0" x2="25.0" y2="265" stroke="#ccc" stroke-width="0.4"/>
<line x1="50.0" y1="0" x2="50.0" y2="265" stroke="#ccc" stroke-width="0.8"/>
<line x1="75.0" y1="0" x2="75.0" y2="265" stroke="#ccc" stroke-width="0.4"/>
<line x1="100.0" y1="0" x2="100.0" y2="265" stroke="#ccc" stroke-width="0.4"/>
<line x1="125.0" y1="0" x2="125.0" y2="265" stroke="#ccc" stroke-width="0.4"/>
<line x1="150.0" y1="0" x2="150.0" y2="265" stroke="#ccc" stroke-width="0.4"/>
<line x1="175.0" y1="0" x2="175.0" y2="265" stroke="#ccc" stroke-width="0.8"/>
<line x1="200.0" y1="0" x2="200.0" y2="265" stroke="#ccc" stroke-width="0.4"/>
<line x1="225.0" y1="0" x2="225.0" y2="265" stroke="#ccc" stroke-width="0.4"/>
<line x1="250.0" y1="0" x2="250.0" y2="265" stroke="#ccc" stroke-width="0.4"/>
<line x1="275.0" y1="0" x2="275.0" y2="265" stroke="#ccc" stroke-width="0.4"/>
<line x1="300.0" y1="0" x2="300.0" y2="265" stroke="#ccc" stroke-width="0.8"/>
<line x1="0" y1="265.0" x2="300" y2="265.0" stroke="#ccc" stroke-width="0.4"/>
<line x1="0" y1="240.0" x2="300" y2="240.0" stroke="#ccc" stroke-width="0.4"/>
<line x1="0" y1="215.0" x2="300" y2="215.0" stroke="#ccc" stroke-width="0.8"/>
<line x1="0" y1="190.0" x2="300" y2="190.0" stroke="#ccc" stroke-width="0.4"/>
<line x1="0" y1="165.0" x2="300" y2="165.0" stroke="#ccc" stroke-width="0.4"/>
<line x1="0" y1="140.0" x2="300" y2="140.0" stroke="#ccc" stroke-width="0.4"/>
<line x1="0" y1="115.0" x2="300" y2="115.0" stroke="#ccc" stroke-width="0.4"/>
<line x1="0" y1="90.0" x2="300" y2="90.0" stroke="#ccc" stroke-width="0.8"/>
<line x1="0" y1="65.0" x2="300" y2="65.0" stroke="#ccc" stroke-width="0.4"/>
<line x1="0" y1="40.0" x2="300" y2="40.0" stroke="#ccc" stroke-width="0.4"/>
<line x1="0" y1="15.0" x2="300" y2="15.0" stroke="#ccc" stroke-width="0.4"/>
<rect x="50.0" y="140.0" width="200.0" height="75.0" fill="#999" fill-opacity="0.45" stroke="#999" stroke-width="1"/>
<text x="52.0" y="150.0" fill="#999" font-size="9">S1 (wall_fill)</text>
<rect x="50.0" y="50.0" width="200.0" height="89.99999999999999" fill="#999" fill-opacity="0.45" stroke="#999" stroke-width="1"/>
<text x="52.0" y="60.0" fill="#999" font-size="9">S2 (wall_fill)</text>
<rect x="135.0" y="70.0" width="29.999999999999993" height="44.99999999999999" fill="#1f77b4" fill-opacity="0.45" stroke="#1f77b4" stroke-width="1"/>
<text x="137.0" y="80.0" fill="#1f77b4" font-size="9">S3 (window)</text>
<rect x="135.0" y="145.0" width="29.999999999999993" height="44.99999999999999" fill="#1f77b4" fill-opacity="0.45" stroke="#1f77b4" stroke-width="1"/>
<text x="137.0" y="155.0" fill="#1f77b4" font-size="9">S4 (window)</text>
<line x1="50.0" y1="50.0" x2="250.0" y2="50.0" stroke="#2ca02c" stroke-width="0.6" stroke-dasharray="3,2"/>
<text x="150.0" y="50.0" fill="#2ca02c">8000</text>
<line x1="50.0" y1="50.0" x2="135.0" y2="50.0" stroke="#2ca02c" stroke-width="0.6" stroke-dasharray="3,2"/>
<text x="92.5" y="50.0" fill="#2ca02c">3400</text>
<line x1="135.0" y1="50.0" x2="165.0" y2="50.0" stroke="#2ca02c" stroke-width="0.6" stroke-dasharray="3,2"/>
<text x="150.0" y="50.0" fill="#2ca02c">1200</text>
<line x1="165.0" y1="50.0" x2="250.0" y2="50.0" stroke="#2ca02c" stroke-width="0.6" stroke-dasharray="3,2"/>
<text x="207.50000000000003" y="50.0" fill="#2ca02c">3400</text>
<line x1="50.0" y1="215.0" x2="50.0" y2="50.0" stroke="#2ca02c" stroke-width="0.6" stroke-dasharray="3,2"/>
<text x="50.0" y="132.5" fill="#2ca02c">6600</text>
<line x1="50.0" y1="140.0" x2="50.0" y2="50.0" stroke="#2ca02c" stroke-width="0.6" stroke-dasharray="3,2"/>
<text x="50.0" y="95.0" fill="#2ca02c">3600</text>
<line x1="50.0" y1="215.0" x2="50.0" y2="140.0" stroke="#2ca02c" stroke-width="0.6" stroke-dasharray="3,2"/>
<text x="50.0" y="177.5" fill="#2ca02c">3000</text>
<line x1="50.0" y1="70.0" x2="50.0" y2="50.0" stroke="#2ca02c" stroke-width="0.6" stroke-dasharray="3,2"/>
<text x="50.0" y="60.00000000000003" fill="#2ca02c">800</text>
<line x1="50.0" y1="115.0" x2="50.0" y2="70.0" stroke="#2ca02c" stroke-width="0.6" stroke-dasharray="3,2"/>
<text x="50.0" y="92.5" fill="#2ca02c">1800</text>
<line x1="50.0" y1="140.0" x2="50.0" y2="115.0" stroke="#2ca02c" stroke-width="0.6" stroke-dasharray="3,2"/>
<text x="50.0" y="127.5" fill="#2ca02c">1000</text>
<line x1="50.0" y1="145.0" x2="50.0" y2="140.0" stroke="#2ca02c" stroke-width="0.6" stroke-dasharray="3,2"/>
<text x="50.0" y="142.5" fill="#2ca02c">200</text>
<line x1="50.0" y1="190.0" x2="50.0" y2="145.0" stroke="#2ca02c" stroke-width="0.6" stroke-dasharray="3,2"/>
<text x="50.0" y="167.5" fill="#2ca02c">1800</text>
<line x1="50.0" y1="215.0" x2="50.0" y2="190.0" stroke="#2ca02c" stroke-width="0.6" stroke-dasharray="3,2"/>
<text x="50.0" y="202.5" fill="#2ca02c">1000</text>
<line x1="250.0" y1="140.0" x2="250.0" y2="50.0" stroke="#2ca02c" stroke-width="0.6" stroke-dasharray="3,2"/>
<text x="250.0" y="95.0" fill="#2ca02c">3600</text>
<line x1="250.0" y1="215.0" x2="250.0" y2="140.0" stroke="#2ca02c" stroke-width="0.6" stroke-dasharray="3,2"/>
<text x="250.0" y="177.5" fill="#2ca02c">3000</text>
<line x1="250.0" y1="215.0" x2="250.0" y2="50.0" stroke="#2ca02c" stroke-width="0.6" stroke-dasharray="3,2"/>
<text x="250.0" y="132.5" fill="#2ca02c">6600</text>
<line x1="50.0" y1="215.0" x2="250.0" y2="215.0" stroke="#2ca02c" stroke-width="0.6" stroke-dasharray="3,2"/>
<text x="150.0" y="215.0" fill="#2ca02c">8000</text>
<g transform="translate(6,155)">
<rect x="0" y="0" width="10" height="10" fill="#222"/>
<text x="14" y="9" fill="#333">wall (plan)</text>
<rect x="0" y="12" width="10" height="10" fill="#999"/>
<text x="14" y="21" fill="#333">wall_fill (elev)</text>
<rect x="0" y="24" width="10" height="10" fill="#1f77b4"/>
<text x="14" y="33" fill="#333">window</text>
<rect x="0" y="36" width="10" height="10" fill="#000"/>
<text x="14" y="45" fill="#333">outline</text>
<rect x="0" y="48" width="10" height="10" fill="#8c564b"/>
<text x="14" y="57" fill="#333">stair</text>
<rect x="0" y="60" width="10" height="10" fill="#aaa"/>
<text x="14" y="69" fill="#333">other</text>
<rect x="0" y="72" width="10" height="10" fill="#2ca02c"/>
<text x="14" y="81" fill="#333">dimension</text>
<rect x="0" y="84" width="10" height="10" fill="#9467bd"/>
<text x="14" y="93" fill="#333">ocr</text>
</g>
</svg>