<svg xmlns="http://www.w3.org/2000/svg" width="475" height="265" viewBox="0 0 475 265" font-family="monospace" font-size="10">
<rect width="100%" height="100%" fill="#fafafa"/>
<text x="6" y="14" fill="#333">image_kind=elevation | South elevation</text>
<line x1="0.0" y1="0" x2="0.0" y2="265" stroke="#ccc" stroke-width="0.4"/>
<line x1="25.0" y1="0" x2="25.0" y2="265" stroke="#ccc" stroke-width="0.4"/>
<line x1="50.0" y1="0" x2="50.0" y2="265" stroke="#ccc" stroke-width="0.8"/>
<line x1="75.0" y1="0" x2="75.0" y2="265" stroke="#ccc" stroke-width="0.4"/>
<line x1="100.0" y1="0" x2="100.0" y2="265" stroke="#ccc" stroke-width="0.4"/>
<line x1="125.0" y1="0" x2="125.0" y2="265" stroke="#ccc" stroke-width="0.4"/>
<line x1="150.0" y1="0" x2="150.0" y2="265" stroke="#ccc" stroke-width="0.4"/>
<line x1="175.0" y1="0" x2="175.0" y2="265" stroke="#ccc" stroke-width="0.8"/>
<line x1="200.0" y1="0" x2="200.0" y2="265" stroke="#ccc" stroke-width="0.4"/>
<line x1="225.0" y1="0" x2="225.0" y2="265" stroke="#ccc" stroke-width="0.4"/>
<line x1="250.0" y1="0" x2="250.0" y2="265" stroke="#ccc" stroke-width="0.4"/>
<line x1="275.0" y1="0" x2="275.0" y2="265" stroke="#ccc" stroke-width="0.4"/>
<line x1="300.0" y1="0" x2="300.0" y2="265" stroke="#ccc" stroke-width="0.8"/>
<line x1="325.0" y1="0" x2="325.0" y2="265" stroke="#ccc" stroke-width="0.4"/>
<line x1="350.0" y1="0" x2="350.0" y2="265" stroke="#ccc" stroke-width="0.4"/>
<line x1="375.0" y1="0" x2="375.0" y2="265" stroke="#ccc" stroke-width="0.4"/>
<line x1="400.0" y1="0" x2="400.0" y2="265" stroke="#ccc" stroke-width="0.4"/>
<line x1="425.0" y1="0" x2="425.0" y2="265" stroke="#ccc" stroke-width="0.8"/>
<line x1="450.0" y1="0" x2="450.0" y2="265" stroke="#ccc" stroke-width="0.4"/>
<line x1="475.0" y1="0" x2="475.0" y2="265" stroke="#ccc" stroke-width="0.4"/>
<line x1="0" y1="265.0" x2="475" y2="265.0" stroke="#ccc" stroke-width="0.4"/>
<line x1="0" y1="240.0" x2="475" y2="240.0" stroke="#ccc" stroke-width="0.4"/>
<line x1="0" y1="215.0" x2="475" y2="215.0" stroke="#ccc" stroke-width="0.8"/>
<line x1="0" y1="190.0" x2="475" y2="190.0" stroke="#ccc" stroke-width="0.4"/>
<line x1="0" y1="165.0" x2="475" y2="165.0" stroke="#ccc" stroke-width="0.4"/>
<line x1="0" y1="140.0" x2="475" y2="140.0" stroke="#ccc" stroke-width="0.4"/>
<line x1="0" y1="115.0" x2="475" y2="115.0" stroke="#ccc" stroke-width="0.4"/>
<line x1="0" y1="90.0" x2="475" y2="90.0" stroke="#ccc" stroke-width="0.8"/>
<line x1="0" y1="65.0" x2="475" y2="65.0" stroke="#ccc" stroke-width="0.4"/>
<line x1="0" y1="40.0" x2="475" y2="40.0" stroke="#ccc" stroke-width="0.4"/>
<line x1="0" y1="15.0" x2="475" y2="15.0" stroke="#ccc" stroke-width="0.4"/>
<rect x="50.0" y="140.0" width="375.0" height="75.0" fill="#999" fill-opacity="0.45" stroke="#999" stroke-width="1"/>
<text x="52.0" y="150.0" fill="#999" font-size="9">S1 (wall_fill)</text>
<rect x="50.0" y="50.0" width="375.0" height="89.99999999999999" fill="#999" fill-opacity="0.45" stroke="#999" stroke-width="1"/>
<text x="52.0" y="60.0" fill="#999" font-size="9">S2 (wall_fill)</text>
<rect x="104.74999999999999" y="70.0" width="30.000000000000004" height="44.99999999999999" fill="#1f77b4" fill-opacity="0.45" stroke="#1f77b4" stroke-width="1"/>
<text x="106.74999999999999" y="80.0" fill="#1f77b4" font-size="9">S3 (window)</text>
<rect x="152.75" y="70.0" width="29.999999999999982" height="44.99999999999999" fill="#1f77b4" fill-opacity="0.45" stroke="#1f77b4" stroke-width="1"/>
<text x="154.75" y="80.0" fill="#1f77b4" font-size="9">S4 (window)</text>
<rect x="292.25" y="70.0" width="30.00000000000003" height="44.99999999999999" fill="#1f77b4" fill-opacity="0.45" stroke="#1f77b4" stroke-width="1"/>
<text x="294.25" y="80.0" fill="#1f77b4" font-size="9">S5 (window)</text>
<rect x="340.25" y="70.0" width="30.00000000000003" height="44.99999999999999" fill="#1f77b4" fill-opacity="0.45" stroke="#1f77b4" stroke-width="1"/>
<text x="342.25" y="80.0" fill="#1f77b4" font-size="9">S6 (window)</text>
<rect x="166.0" y="162.5" width="30.000000000000004" height="15.000000000000002" fill="#1f77b4" fill-opacity="0.45" stroke="#1f77b4" stroke-width="1"/>
<text x="168.0" y="172.5" fill="#1f77b4" font-size="9">S7 (window)</text>
<rect x="207.50000000000003" y="150.0" width="59.999999999999986" height="40.0" fill="#1f77b4" fill-opacity="0.45" stroke="#1f77b4" stroke-width="1"/>
<text x="209.50000000000003" y="160.0" fill="#1f77b4" font-size="9">S8 (window)</text>
<rect x="334.0" y="150.0" width="60.00000000000001" height="40.0" fill="#1f77b4" fill-opacity="0.45" stroke="#1f77b4" stroke-width="1"/>
<text x="336.0" y="160.0" fill="#1f77b4" font-size="9">S9 (window)</text>
<line x1="50.0" y1="50.0" x2="425.0" y2="50.0" stroke="#2ca02c" stroke-width="0.6" stroke-dasharray="3,2"/>
<text x="237.5" y="50.0" fill="#2ca02c">15000</text>
<line x1="50.0" y1="50.0" x2="104.74999999999999" y2="50.0" stroke="#2ca02c" stroke-width="0.6" stroke-dasharray="3,2"/>
<text x="77.375" y="50.0" fill="#2ca02c">2190</text>
<line x1="104.74999999999999" y1="50.0" x2="134.75" y2="50.0" stroke="#2ca02c" stroke-width="0.6" stroke-dasharray="3,2"/>
<text x="119.75" y="50.0" fill="#2ca02c">1200</text>
<line x1="134.75" y1="50.0" x2="152.75" y2="50.0" stroke="#2ca02c" stroke-width="0.6" stroke-dasharray="3,2"/>
<text x="143.75" y="50.0" fill="#2ca02c">720</text>
<line x1="152.75" y1="50.0" x2="182.75" y2="50.0" stroke="#2ca02c" stroke-width="0.6" stroke-dasharray="3,2"/>
<text x="167.75" y="50.0" fill="#2ca02c">1200</text>
<line x1="182.75" y1="50.0" x2="292.25" y2="50.0" stroke="#2ca02c" stroke-width="0.6" stroke-dasharray="3,2"/>
<text x="237.5" y="50.0" fill="#2ca02c">4380</text>
<line x1="292.25" y1="50.0" x2="322.25" y2="50.0" stroke="#2ca02c" stroke-width="0.6" stroke-dasharray="3,2"/>
<text x="307.25" y="50.0" fill="#2ca02c">1200</text>
<line x1="322.25" y1="50.0" x2="340.25" y2="50.0" stroke="#2ca02c" stroke-width="0.6" stroke-dasharray="3,2"/>
<text x="331.25" y="50.0" fill="#2ca02c">720</text>
<line x1="340.25" y1="50.0" x2="370.25" y2="50.0" stroke="#2ca02c" stroke-width="0.6" stroke-dasharray="3,2"/>
<text x="355.25" y="50.0" fill="#2ca02c">1200</text>
<line x1="370.25" y1="50.0" x2="425.0" y2="50.0" stroke="#2ca02c" stroke-width="0.6" stroke-dasharray="3,2"/>
<text x="397.625" y="50.0" fill="#2ca02c">2190</text>
<line x1="50.0" y1="215.0" x2="50.0" y2="50.0" stroke="#2ca02c" stroke-width="0.6" stroke-dasharray="3,2"/>
<text x="50.0" y="132.5" fill="#2ca02c">6600</text>
<line x1="50.0" y1="140.0" x2="50.0" y2="50.0" stroke="#2ca02c" stroke-width="0.6" stroke-dasharray="3,2"/>
<text x="50.0" y="95.0" fill="#2ca02c">3600</text>
<line x1="50.0" y1="215.0" x2="50.0" y2="140.0" stroke="#2ca02c" stroke-width="0.6" stroke-dasharray="3,2"/>
<text x="50.0" y="177.5" fill="#2ca02c">3000</text>
<line x1="50.0" y1="70.0" x2="50.0" y2="50.0" stroke="#2ca02c" stroke-width="0.6" stroke-dasharray="3,2"/>
<text x="50.0" y="60.00000000000003" fill="#2ca02c">800</text>
<line x1="50.0" y1="115.0" x2="50.0" y2="70.0" stroke="#2ca02c" stroke-width="0.6" stroke-dasharray="3,2"/>
<text x="50.0" y="92.5" fill="#2ca02c">1800</text>
<line x1="50.0" y1="140.0" x2="50.0" y2="115.0" stroke="#2ca02c" stroke-width="0.6" stroke-dasharray="3,2"/>
<text x="50.0" y="127.5" fill="#2ca02c">1000</text>
<line x1="50.0" y1="162.5" x2="50.0" y2="140.0" stroke="#2ca02c" stroke-width="0.6" stroke-dasharray="3,2"/>
<text x="50.0" y="151.25" fill="#2ca02c">900</text>
<line x1="50.0" y1="177.5" x2="50.0" y2="162.5" stroke="#2ca02c" stroke-width="0.6" stroke-dasharray="3,2"/>
<text x="50.0" y="170.0" fill="#2ca02c">600</text>
<line x1="50.0" y1="215.0" x2="50.0" y2="177.5" stroke="#2ca02c" stroke-width="0.6" stroke-dasharray="3,2"/>
<text x="50.0" y="196.25" fill="#2ca02c">1500</text>
<line x1="425.0" y1="215.0" x2="425.0" y2="190.0" stroke="#2ca02c" stroke-width="0.6" stroke-dasharray="3,2"/>
<text x="425.0" y="202.5" fill="#2ca02c">1000</text>
<line x1="425.0" y1="190.0" x2="425.0" y2="150.0" stroke="#2ca02c" stroke-width="0.6" stroke-dasharray="3,2"/>
<text x="425.0" y="170.0" fill="#2ca02c">1600</text>
<line x1="50.0" y1="215.0" x2="136.0" y2="215.0" stroke="#2ca02c" stroke-width="0.6" stroke-dasharray="3,2"/>
<text x="93.0" y="215.0" fill="#2ca02c">3440</text>
<line x1="136.0" y1="215.0" x2="166.0" y2="215.0" stroke="#2ca02c" stroke-width="0.6" stroke-dasharray="3,2"/>
<text x="151.0" y="215.0" fill="#2ca02c">1200</text>
<line x1="166.0" y1="215.0" x2="207.50000000000003" y2="215.0" stroke="#2ca02c" stroke-width="0.6" stroke-dasharray="3,2"/>
<text x="186.75" y="215.0" fill="#2ca02c">1660</text>
<line x1="207.50000000000003" y1="215.0" x2="267.5" y2="215.0" stroke="#2ca02c" stroke-width="0.6" stroke-dasharray="3,2"/>
<text x="237.5" y="215.0" fill="#2ca02c">2400</text>
<line x1="267.5" y1="215.0" x2="334.0" y2="215.0" stroke="#2ca02c" stroke-width="0.6" stroke-dasharray="3,2"/>
<text x="300.75" y="215.0" fill="#2ca02c">2660</text>
<line x1="334.0" y1="215.0" x2="394.0" y2="215.0" stroke="#2ca02c" stroke-width="0.6" stroke-dasharray="3,2"/>
<text x="363.99999999999994" y="215.0" fill="#2ca02c">2400</text>
<line x1="394.0" y1="215.0" x2="425.0" y2="215.0" stroke="#2ca02c" stroke-width="0.6" stroke-dasharray="3,2"/>
<text x="409.5" y="215.0" fill="#2ca02c">1240</text>
<line x1="50.0" y1="215.0" x2="425.0" y2="215.0" stroke="#2ca02c" stroke-width="0.6" stroke-dasharray="3,2"/>
<text x="237.5" y="215.0" fill="#2ca02c">15000</text>
<g transform="translate(6,155)">
<rect x="0" y="0" width="10" height="10" fill="#222"/>
<text x="14" y="9" fill="#333">wall (plan)</text>
<rect x="0" y="12" width="10" height="10" fill="#999"/>
<text x="14" y="21" fill="#333">wall_fill (elev)</text>
<rect x="0" y="24" width="10" height="10" fill="#1f77b4"/>
<text x="14" y="33" fill="#333">window</text>
<rect x="0" y="36" width="10" height="10" fill="#000"/>
<text x="14" y="45" fill="#333">outline</text>
<rect x="0" y="48" width="10" height="10" fill="#8c564b"/>
<text x="14" y="57" fill="#333">stair</text>
<rect x="0" y="60" width="10" height="10" fill="#aaa"/>
<text x="14" y="69" fill="#333">other</text>
<rect x="0" y="72" width="10" height="10" fill="#2ca02c"/>
<text x="14" y="81" fill="#333">dimension</text>
<rect x="0" y="84" width="10" height="10" fill="#9467bd"/>
<text x="14" y="93" fill="#333">ocr</text>
</g>
</svg>