<svg xmlns="http://www.w3.org/2000/svg" width="300" height="400" viewBox="0 0 300 400" font-family="monospace" font-size="10">
<rect width="100%" height="100%" fill="#fafafa"/>
<text x="6" y="14" fill="#333">image_kind=elevation | West view of the building</text>
<line x1="0.0" y1="0" x2="0.0" y2="400" stroke="#ccc" stroke-width="0.4"/>
<line x1="25.0" y1="0" x2="25.0" y2="400" stroke="#ccc" stroke-width="0.4"/>
<line x1="50.0" y1="0" x2="50.0" y2="400" stroke="#ccc" stroke-width="0.8"/>
<line x1="75.0" y1="0" x2="75.0" y2="400" stroke="#ccc" stroke-width="0.4"/>
<line x1="100.0" y1="0" x2="100.0" y2="400" stroke="#ccc" stroke-width="0.4"/>
<line x1="125.0" y1="0" x2="125.0" y2="400" stroke="#ccc" stroke-width="0.4"/>
<line x1="150.0" y1="0" x2="150.0" y2="400" stroke="#ccc" stroke-width="0.4"/>
<line x1="175.0" y1="0" x2="175.0" y2="400" stroke="#ccc" stroke-width="0.8"/>
<line x1="200.0" y1="0" x2="200.0" y2="400" stroke="#ccc" stroke-width="0.4"/>
<line x1="225.0" y1="0" x2="225.0" y2="400" stroke="#ccc" stroke-width="0.4"/>
<line x1="250.0" y1="0" x2="250.0" y2="400" stroke="#ccc" stroke-width="0.4"/>
<line x1="275.0" y1="0" x2="275.0" y2="400" stroke="#ccc" stroke-width="0.4"/>
<line x1="300.0" y1="0" x2="300.0" y2="400" stroke="#ccc" stroke-width="0.8"/>
<line x1="0" y1="400.0" x2="300" y2="400.0" stroke="#ccc" stroke-width="0.4"/>
<line x1="0" y1="375.0" x2="300" y2="375.0" stroke="#ccc" stroke-width="0.4"/>
<line x1="0" y1="350.0" x2="300" y2="350.0" stroke="#ccc" stroke-width="0.8"/>
<line x1="0" y1="325.0" x2="300" y2="325.0" stroke="#ccc" stroke-width="0.4"/>
<line x1="0" y1="300.0" x2="300" y2="300.0" stroke="#ccc" stroke-width="0.4"/>
<line x1="0" y1="275.0" x2="300" y2="275.0" stroke="#ccc" stroke-width="0.4"/>
<line x1="0" y1="250.0" x2="300" y2="250.0" stroke="#ccc" stroke-width="0.4"/>
<line x1="0" y1="225.0" x2="300" y2="225.0" stroke="#ccc" stroke-width="0.8"/>
<line x1="0" y1="200.0" x2="300" y2="200.0" stroke="#ccc" stroke-width="0.4"/>
<line x1="0" y1="175.0" x2="300" y2="175.0" stroke="#ccc" stroke-width="0.4"/>
<line x1="0" y1="150.0" x2="300" y2="150.0" stroke="#ccc" stroke-width="0.4"/>
<line x1="0" y1="125.0" x2="300" y2="125.0" stroke="#ccc" stroke-width="0.4"/>
<line x1="0" y1="100.0" x2="300" y2="100.0" stroke="#ccc" stroke-width="0.8"/>
<line x1="0" y1="75.0" x2="300" y2="75.0" stroke="#ccc" stroke-width="0.4"/>
<line x1="0" y1="50.0" x2="300" y2="50.0" stroke="#ccc" stroke-width="0.4"/>
<line x1="0" y1="25.0" x2="300" y2="25.0" stroke="#ccc" stroke-width="0.4"/>
<line x1="0" y1="0.0" x2="300" y2="0.0" stroke="#ccc" stroke-width="0.4"/>
<rect x="50.0" y="260.0" width="200.0" height="90.0" fill="#999" fill-opacity="0.45" stroke="#999" stroke-width="1"/>
<text x="52.0" y="270.0" fill="#999" font-size="9">S1 (wall_fill)</text>
<rect x="50.0" y="170.00000000000003" width="200.0" height="90.0" fill="#999" fill-opacity="0.45" stroke="#999" stroke-width="1"/>
<text x="52.0" y="180.00000000000003" fill="#999" font-size="9">S2 (wall_fill)</text>
<rect x="50.0" y="50.0" width="200.0" height="120.0" fill="#999" fill-opacity="0.45" stroke="#999" stroke-width="1"/>
<text x="52.0" y="60.0" fill="#999" font-size="9">S3 (wall_fill)</text>
<rect x="137.5" y="85.0" width="25.0" height="60.00000000000001" fill="#1f77b4" fill-opacity="0.45" stroke="#1f77b4" stroke-width="1"/>
<text x="139.5" y="95.0" fill="#1f77b4" font-size="9">S4 (window)</text>
<line x1="50.0" y1="50.0" x2="250.0" y2="50.0" stroke="#2ca02c" stroke-width="0.6" stroke-dasharray="3,2"/>
<text x="150.0" y="50.0" fill="#2ca02c">8.00</text>
<line x1="50.0" y1="50.0" x2="137.5" y2="50.0" stroke="#2ca02c" stroke-width="0.6" stroke-dasharray="3,2"/>
<text x="93.75" y="50.0" fill="#2ca02c">3.50</text>
<line x1="137.5" y1="50.0" x2="162.5" y2="50.0" stroke="#2ca02c" stroke-width="0.6" stroke-dasharray="3,2"/>
<text x="150.0" y="50.0" fill="#2ca02c">1.00</text>
<line x1="162.5" y1="50.0" x2="250.0" y2="50.0" stroke="#2ca02c" stroke-width="0.6" stroke-dasharray="3,2"/>
<text x="206.25" y="50.0" fill="#2ca02c">3.50</text>
<line x1="50.0" y1="350.0" x2="250.0" y2="350.0" stroke="#2ca02c" stroke-width="0.6" stroke-dasharray="3,2"/>
<text x="150.0" y="350.0" fill="#2ca02c">8.00</text>
<line x1="50.0" y1="350.0" x2="50.0" y2="50.0" stroke="#2ca02c" stroke-width="0.6" stroke-dasharray="3,2"/>
<text x="50.0" y="200.0" fill="#2ca02c">12.00</text>
<line x1="50.0" y1="350.0" x2="50.0" y2="260.0" stroke="#2ca02c" stroke-width="0.6" stroke-dasharray="3,2"/>
<text x="50.0" y="305.0" fill="#2ca02c">3.60</text>
<line x1="50.0" y1="260.0" x2="50.0" y2="170.00000000000003" stroke="#2ca02c" stroke-width="0.6" stroke-dasharray="3,2"/>
<text x="50.0" y="215.0" fill="#2ca02c">3.60</text>
<line x1="50.0" y1="170.00000000000003" x2="50.0" y2="50.0" stroke="#2ca02c" stroke-width="0.6" stroke-dasharray="3,2"/>
<text x="50.0" y="110.0" fill="#2ca02c">4.80</text>
<line x1="250.0" y1="350.0" x2="250.0" y2="50.0" stroke="#2ca02c" stroke-width="0.6" stroke-dasharray="3,2"/>
<text x="250.0" y="200.0" fill="#2ca02c">12.00</text>
<line x1="250.0" y1="350.0" x2="250.0" y2="260.0" stroke="#2ca02c" stroke-width="0.6" stroke-dasharray="3,2"/>
<text x="250.0" y="305.0" fill="#2ca02c">3.60</text>
<line x1="250.0" y1="260.0" x2="250.0" y2="170.00000000000003" stroke="#2ca02c" stroke-width="0.6" stroke-dasharray="3,2"/>
<text x="250.0" y="215.0" fill="#2ca02c">3.60</text>
<line x1="250.0" y1="170.00000000000003" x2="250.0" y2="145.00000000000003" stroke="#2ca02c" stroke-width="0.6" stroke-dasharray="3,2"/>
<text x="250.0" y="157.50000000000003" fill="#2ca02c">1.00</text>
<line x1="250.0" y1="145.00000000000003" x2="250.0" y2="85.0" stroke="#2ca02c" stroke-width="0.6" stroke-dasharray="3,2"/>
<text x="250.0" y="115.00000000000006" fill="#2ca02c">2.40</text>
<line x1="250.0" y1="85.0" x2="250.0" y2="50.0" stroke="#2ca02c" stroke-width="0.6" stroke-dasharray="3,2"/>
<text x="250.0" y="67.5" fill="#2ca02c">1.40</text>
<g transform="translate(6,290)">
<rect x="0" y="0" width="10" height="10" fill="#222"/>
<text x="14" y="9" fill="#333">wall (plan)</text>
<rect x="0" y="12" width="10" height="10" fill="#999"/>
<text x="14" y="21" fill="#333">wall_fill (elev)</text>
<rect x="0" y="24" width="10" height="10" fill="#1f77b4"/>
<text x="14" y="33" fill="#333">window</text>
<rect x="0" y="36" width="10" height="10" fill="#000"/>
<text x="14" y="45" fill="#333">outline</text>
<rect x="0" y="48" width="10" height="10" fill="#8c564b"/>
<text x="14" y="57" fill="#333">stair</text>
<rect x="0" y="60" width="10" height="10" fill="#aaa"/>
<text x="14" y="69" fill="#333">other</text>
<rect x="0" y="72" width="10" height="10" fill="#2ca02c"/>
<text x="14" y="81" fill="#333">dimension</text>
<rect x="0" y="84" width="10" height="10" fill="#9467bd"/>
<text x="14" y="93" fill="#333">ocr</text>
</g>
</svg>