<svg xmlns="http://www.w3.org/2000/svg" width="220" height="297" viewBox="0 0 220 297" font-family="monospace" font-size="10">
<rect width="100%" height="100%" fill="#fafafa"/>
<text x="6" y="14" fill="#333">image_kind=plan | test2 - Spanish tiny house 4.5m x 6m, single-story plan (3D rendered top view)</text>
<line x1="0.0" y1="0" x2="0.0" y2="297" stroke="#ccc" stroke-width="0.4"/>
<line x1="25.0" y1="0" x2="25.0" y2="297" stroke="#ccc" stroke-width="0.4"/>
<line x1="50.0" y1="0" x2="50.0" y2="297" stroke="#ccc" stroke-width="0.8"/>
<line x1="75.0" y1="0" x2="75.0" y2="297" stroke="#ccc" stroke-width="0.4"/>
<line x1="100.0" y1="0" x2="100.0" y2="297" stroke="#ccc" stroke-width="0.4"/>
<line x1="125.0" y1="0" x2="125.0" y2="297" stroke="#ccc" stroke-width="0.4"/>
<line x1="150.0" y1="0" x2="150.0" y2="297" stroke="#ccc" stroke-width="0.4"/>
<line x1="175.0" y1="0" x2="175.0" y2="297" stroke="#ccc" stroke-width="0.8"/>
<line x1="200.0" y1="0" x2="200.0" y2="297" stroke="#ccc" stroke-width="0.4"/>
<line x1="0" y1="284.5" x2="220" y2="284.5" stroke="#ccc" stroke-width="0.4"/>
<line x1="0" y1="259.5" x2="220" y2="259.5" stroke="#ccc" stroke-width="0.4"/>
<line x1="0" y1="234.5" x2="220" y2="234.5" stroke="#ccc" stroke-width="0.4"/>
<line x1="0" y1="209.5" x2="220" y2="209.5" stroke="#ccc" stroke-width="0.8"/>
<line x1="0" y1="184.5" x2="220" y2="184.5" stroke="#ccc" stroke-width="0.4"/>
<line x1="0" y1="159.5" x2="220" y2="159.5" stroke="#ccc" stroke-width="0.4"/>
<line x1="0" y1="134.5" x2="220" y2="134.5" stroke="#ccc" stroke-width="0.4"/>
<line x1="0" y1="109.5" x2="220" y2="109.5" stroke="#ccc" stroke-width="0.4"/>
<line x1="0" y1="84.5" x2="220" y2="84.5" stroke="#ccc" stroke-width="0.8"/>
<line x1="0" y1="59.5" x2="220" y2="59.5" stroke="#ccc" stroke-width="0.4"/>
<line x1="0" y1="34.5" x2="220" y2="34.5" stroke="#ccc" stroke-width="0.4"/>
<line x1="0" y1="9.5" x2="220" y2="9.5" stroke="#ccc" stroke-width="0.4"/>
<line x1="50.0" y1="209.5" x2="162.5" y2="209.5" stroke="#222" stroke-width="1.5" stroke-linecap="round"/>
<text x="106.25" y="206.5" fill="#666" font-size="8">S1</text>
<line x1="50.0" y1="59.5" x2="162.5" y2="59.5" stroke="#222" stroke-width="1.5" stroke-linecap="round"/>
<text x="106.25" y="56.5" fill="#666" font-size="8">S2</text>
<line x1="50.0" y1="209.5" x2="50.0" y2="59.5" stroke="#222" stroke-width="1.5" stroke-linecap="round"/>
<text x="50.0" y="131.5" fill="#666" font-size="8">S3</text>
<line x1="162.5" y1="209.5" x2="162.5" y2="59.5" stroke="#222" stroke-width="1.5" stroke-linecap="round"/>
<text x="162.5" y="131.5" fill="#666" font-size="8">S4</text>
<line x1="50.0" y1="134.5" x2="125.0" y2="134.5" stroke="#222" stroke-width="1.5" stroke-linecap="round"/>
<text x="87.5" y="131.5" fill="#666" font-size="8">S5</text>
<line x1="125.0" y1="109.5" x2="125.0" y2="59.5" stroke="#222" stroke-width="1.5" stroke-linecap="round"/>
<text x="125.0" y="81.5" fill="#666" font-size="8">S6</text>
<line x1="125.0" y1="109.5" x2="162.5" y2="109.5" stroke="#222" stroke-width="1.5" stroke-linecap="round"/>
<text x="143.75" y="106.5" fill="#666" font-size="8">S7</text>
<line x1="50.0" y1="104.5" x2="50.0" y2="79.50000000000003" stroke="#1f77b4" stroke-width="1.5" stroke-linecap="round"/>
<text x="50.0" y="89.00000000000003" fill="#666" font-size="8">S10</text>
<line x1="50.0" y1="189.5" x2="50.0" y2="164.5" stroke="#1f77b4" stroke-width="1.5" stroke-linecap="round"/>
<text x="50.0" y="174.0" fill="#666" font-size="8">S11</text>
<line x1="70.0" y1="209.5" x2="125.0" y2="209.5" stroke="#1f77b4" stroke-width="1.5" stroke-linecap="round"/>
<text x="97.5" y="206.5" fill="#666" font-size="8">S12</text>
<line x1="50.0" y1="59.5" x2="125.0" y2="59.5" stroke="#2ca02c" stroke-width="0.6" stroke-dasharray="3,2"/>
<text x="87.5" y="59.5" fill="#2ca02c">3,00</text>
<line x1="125.0" y1="59.5" x2="162.5" y2="59.5" stroke="#2ca02c" stroke-width="0.6" stroke-dasharray="3,2"/>
<text x="143.75" y="59.5" fill="#2ca02c">1,50</text>
<line x1="50.0" y1="209.5" x2="162.5" y2="209.5" stroke="#2ca02c" stroke-width="0.6" stroke-dasharray="3,2"/>
<text x="106.25" y="209.5" fill="#2ca02c">4,50</text>
<line x1="50.0" y1="134.5" x2="50.0" y2="59.5" stroke="#2ca02c" stroke-width="0.6" stroke-dasharray="3,2"/>
<text x="50.0" y="97.0" fill="#2ca02c">3,00</text>
<line x1="50.0" y1="204.5" x2="50.0" y2="134.5" stroke="#2ca02c" stroke-width="0.6" stroke-dasharray="3,2"/>
<text x="50.0" y="169.5" fill="#2ca02c">2,80</text>
<line x1="162.5" y1="109.5" x2="162.5" y2="59.5" stroke="#2ca02c" stroke-width="0.6" stroke-dasharray="3,2"/>
<text x="162.5" y="84.5" fill="#2ca02c">2,00</text>
<line x1="162.5" y1="134.5" x2="162.5" y2="109.5" stroke="#2ca02c" stroke-width="0.6" stroke-dasharray="3,2"/>
<text x="162.5" y="122.0" fill="#2ca02c">1,00</text>
<line x1="162.5" y1="204.5" x2="162.5" y2="134.5" stroke="#2ca02c" stroke-width="0.6" stroke-dasharray="3,2"/>
<text x="162.5" y="169.5" fill="#2ca02c">2,80</text>
<line x1="50.0" y1="247.0" x2="50.0" y2="209.5" stroke="#2ca02c" stroke-width="0.6" stroke-dasharray="3,2"/>
<text x="50.0" y="228.25" fill="#2ca02c">1,50</text>
<text x="85.0" y="97.0" fill="#9467bd" font-style="italic">DORMITORIO</text>
<text x="143.75" y="84.5" fill="#9467bd" font-style="italic">BANO</text>
<text x="80.0" y="172.0" fill="#9467bd" font-style="italic">ESTAR
COMEDOR</text>
<text x="135.0" y="187.0" fill="#9467bd" font-style="italic">COCINA</text>
<text x="106.25" y="49.5" fill="#9467bd" font-style="italic">4.5m</text>
<text x="170.0" y="134.5" fill="#9467bd" font-style="italic">6m</text>
<g transform="translate(6,187)">
<rect x="0" y="0" width="10" height="10" fill="#222"/>
<text x="14" y="9" fill="#333">wall (plan)</text>
<rect x="0" y="12" width="10" height="10" fill="#999"/>
<text x="14" y="21" fill="#333">wall_fill (elev)</text>
<rect x="0" y="24" width="10" height="10" fill="#1f77b4"/>
<text x="14" y="33" fill="#333">window</text>
<rect x="0" y="36" width="10" height="10" fill="#000"/>
<text x="14" y="45" fill="#333">outline</text>
<rect x="0" y="48" width="10" height="10" fill="#8c564b"/>
<text x="14" y="57" fill="#333">stair</text>
<rect x="0" y="60" width="10" height="10" fill="#aaa"/>
<text x="14" y="69" fill="#333">other</text>
<rect x="0" y="72" width="10" height="10" fill="#2ca02c"/>
<text x="14" y="81" fill="#333">dimension</text>
<rect x="0" y="84" width="10" height="10" fill="#9467bd"/>
<text x="14" y="93" fill="#333">ocr</text>
</g>
</svg>