<svg xmlns="http://www.w3.org/2000/svg" width="196" height="262" viewBox="0 0 196 262" font-family="monospace" font-size="10">
<rect width="100%" height="100%" fill="#fafafa"/>
<text x="6" y="14" fill="#333">image_kind=plan | test3 - '4x6' studio, single-story plan (heavily photorealistic 3D top view)</text>
<line x1="0.0" y1="0" x2="0.0" y2="262" stroke="#ccc" stroke-width="0.4"/>
<line x1="25.0" y1="0" x2="25.0" y2="262" stroke="#ccc" stroke-width="0.4"/>
<line x1="50.0" y1="0" x2="50.0" y2="262" stroke="#ccc" stroke-width="0.8"/>
<line x1="75.0" y1="0" x2="75.0" y2="262" stroke="#ccc" stroke-width="0.4"/>
<line x1="100.0" y1="0" x2="100.0" y2="262" stroke="#ccc" stroke-width="0.4"/>
<line x1="125.0" y1="0" x2="125.0" y2="262" stroke="#ccc" stroke-width="0.4"/>
<line x1="150.0" y1="0" x2="150.0" y2="262" stroke="#ccc" stroke-width="0.4"/>
<line x1="175.0" y1="0" x2="175.0" y2="262" stroke="#ccc" stroke-width="0.8"/>
<line x1="0" y1="262.0" x2="196" y2="262.0" stroke="#ccc" stroke-width="0.4"/>
<line x1="0" y1="237.0" x2="196" y2="237.0" stroke="#ccc" stroke-width="0.4"/>
<line x1="0" y1="212.0" x2="196" y2="212.0" stroke="#ccc" stroke-width="0.8"/>
<line x1="0" y1="187.0" x2="196" y2="187.0" stroke="#ccc" stroke-width="0.4"/>
<line x1="0" y1="162.0" x2="196" y2="162.0" stroke="#ccc" stroke-width="0.4"/>
<line x1="0" y1="137.0" x2="196" y2="137.0" stroke="#ccc" stroke-width="0.4"/>
<line x1="0" y1="112.0" x2="196" y2="112.0" stroke="#ccc" stroke-width="0.4"/>
<line x1="0" y1="87.0" x2="196" y2="87.0" stroke="#ccc" stroke-width="0.8"/>
<line x1="0" y1="62.0" x2="196" y2="62.0" stroke="#ccc" stroke-width="0.4"/>
<line x1="0" y1="37.0" x2="196" y2="37.0" stroke="#ccc" stroke-width="0.4"/>
<line x1="0" y1="12.0" x2="196" y2="12.0" stroke="#ccc" stroke-width="0.4"/>
<line x1="50.0" y1="212.0" x2="146.25" y2="212.0" stroke="#222" stroke-width="1.5" stroke-linecap="round"/>
<text x="98.125" y="209.0" fill="#666" font-size="8">S1</text>
<line x1="50.0" y1="62.0" x2="146.25" y2="62.0" stroke="#222" stroke-width="1.5" stroke-linecap="round"/>
<text x="98.125" y="59.0" fill="#666" font-size="8">S2</text>
<line x1="50.0" y1="212.0" x2="50.0" y2="62.0" stroke="#222" stroke-width="1.5" stroke-linecap="round"/>
<text x="50.0" y="134.0" fill="#666" font-size="8">S3</text>
<line x1="146.25" y1="212.0" x2="146.25" y2="62.0" stroke="#222" stroke-width="1.5" stroke-linecap="round"/>
<text x="146.25" y="134.0" fill="#666" font-size="8">S4</text>
<line x1="102.49999999999999" y1="137.0" x2="102.49999999999999" y2="62.0" stroke="#222" stroke-width="1.5" stroke-linecap="round"/>
<text x="102.49999999999999" y="96.5" fill="#666" font-size="8">S5</text>
<line x1="102.49999999999999" y1="137.0" x2="146.25" y2="137.0" stroke="#222" stroke-width="1.5" stroke-linecap="round"/>
<text x="124.37499999999999" y="134.0" fill="#666" font-size="8">S6</text>
<line x1="50.0" y1="104.5" x2="50.0" y2="79.5" stroke="#1f77b4" stroke-width="1.5" stroke-linecap="round"/>
<text x="50.0" y="89.0" fill="#666" font-size="8">S11</text>
<line x1="50.0" y1="187.0" x2="50.0" y2="162.0" stroke="#1f77b4" stroke-width="1.5" stroke-linecap="round"/>
<text x="50.0" y="171.5" fill="#666" font-size="8">S12</text>
<line x1="146.25" y1="182.0" x2="146.25" y2="157.0" stroke="#1f77b4" stroke-width="1.5" stroke-linecap="round"/>
<text x="146.25" y="166.5" fill="#666" font-size="8">S13</text>
<line x1="50.0" y1="62.0" x2="101.25" y2="62.0" stroke="#2ca02c" stroke-width="0.6" stroke-dasharray="3,2"/>
<text x="75.625" y="62.0" fill="#2ca02c">2,05</text>
<line x1="108.74999999999999" y1="62.0" x2="146.25" y2="62.0" stroke="#2ca02c" stroke-width="0.6" stroke-dasharray="3,2"/>
<text x="127.49999999999999" y="62.0" fill="#2ca02c">1,50</text>
<line x1="50.0" y1="62.0" x2="146.25" y2="62.0" stroke="#2ca02c" stroke-width="0.6" stroke-dasharray="3,2"/>
<text x="98.125" y="62.0" fill="#2ca02c">4,00</text>
<line x1="50.0" y1="212.0" x2="146.25" y2="212.0" stroke="#2ca02c" stroke-width="0.6" stroke-dasharray="3,2"/>
<text x="98.125" y="212.0" fill="#2ca02c">3,70</text>
<line x1="50.0" y1="140.75" x2="50.0" y2="62.0" stroke="#2ca02c" stroke-width="0.6" stroke-dasharray="3,2"/>
<text x="50.0" y="101.375" fill="#2ca02c">3,15</text>
<line x1="50.0" y1="212.0" x2="50.0" y2="112.0" stroke="#2ca02c" stroke-width="0.6" stroke-dasharray="3,2"/>
<text x="50.0" y="162.0" fill="#2ca02c">4,00</text>
<line x1="146.25" y1="99.5" x2="146.25" y2="62.0" stroke="#2ca02c" stroke-width="0.6" stroke-dasharray="3,2"/>
<text x="146.25" y="80.75" fill="#2ca02c">1,50</text>
<line x1="146.25" y1="212.0" x2="146.25" y2="62.0" stroke="#2ca02c" stroke-width="0.6" stroke-dasharray="3,2"/>
<text x="146.25" y="137.0" fill="#2ca02c">6,00</text>
<line x1="50.0" y1="64.5" x2="53.75" y2="64.5" stroke="#2ca02c" stroke-width="0.6" stroke-dasharray="3,2"/>
<text x="51.87500000000001" y="64.5" fill="#2ca02c">15</text>
<line x1="50.0" y1="212.0" x2="50.0" y2="208.25" stroke="#2ca02c" stroke-width="0.6" stroke-dasharray="3,2"/>
<text x="50.0" y="210.125" fill="#2ca02c">15</text>
<text x="97.5" y="49.5" fill="#9467bd" font-style="italic">4x6</text>
<g transform="translate(6,152)">
<rect x="0" y="0" width="10" height="10" fill="#222"/>
<text x="14" y="9" fill="#333">wall (plan)</text>
<rect x="0" y="12" width="10" height="10" fill="#999"/>
<text x="14" y="21" fill="#333">wall_fill (elev)</text>
<rect x="0" y="24" width="10" height="10" fill="#1f77b4"/>
<text x="14" y="33" fill="#333">window</text>
<rect x="0" y="36" width="10" height="10" fill="#000"/>
<text x="14" y="45" fill="#333">outline</text>
<rect x="0" y="48" width="10" height="10" fill="#8c564b"/>
<text x="14" y="57" fill="#333">stair</text>
<rect x="0" y="60" width="10" height="10" fill="#aaa"/>
<text x="14" y="69" fill="#333">other</text>
<rect x="0" y="72" width="10" height="10" fill="#2ca02c"/>
<text x="14" y="81" fill="#333">dimension</text>
<rect x="0" y="84" width="10" height="10" fill="#9467bd"/>
<text x="14" y="93" fill="#333">ocr</text>
</g>
</svg>