<svg xmlns="http://www.w3.org/2000/svg" width="450" height="475" viewBox="0 0 450 475" font-family="monospace" font-size="10">
<rect width="100%" height="100%" fill="#fafafa"/>
<text x="6" y="14" fill="#333">image_kind=plan | test6 - Room Planner composite plan (Catalan labels), stepped non-rectangular footprint</text>
<line x1="0.0" y1="0" x2="0.0" y2="475" stroke="#ccc" stroke-width="0.4"/>
<line x1="25.0" y1="0" x2="25.0" y2="475" stroke="#ccc" stroke-width="0.4"/>
<line x1="50.0" y1="0" x2="50.0" y2="475" stroke="#ccc" stroke-width="0.8"/>
<line x1="75.0" y1="0" x2="75.0" y2="475" stroke="#ccc" stroke-width="0.4"/>
<line x1="100.0" y1="0" x2="100.0" y2="475" stroke="#ccc" stroke-width="0.4"/>
<line x1="125.0" y1="0" x2="125.0" y2="475" stroke="#ccc" stroke-width="0.4"/>
<line x1="150.0" y1="0" x2="150.0" y2="475" stroke="#ccc" stroke-width="0.4"/>
<line x1="175.0" y1="0" x2="175.0" y2="475" stroke="#ccc" stroke-width="0.8"/>
<line x1="200.0" y1="0" x2="200.0" y2="475" stroke="#ccc" stroke-width="0.4"/>
<line x1="225.0" y1="0" x2="225.0" y2="475" stroke="#ccc" stroke-width="0.4"/>
<line x1="250.0" y1="0" x2="250.0" y2="475" stroke="#ccc" stroke-width="0.4"/>
<line x1="275.0" y1="0" x2="275.0" y2="475" stroke="#ccc" stroke-width="0.4"/>
<line x1="300.0" y1="0" x2="300.0" y2="475" stroke="#ccc" stroke-width="0.8"/>
<line x1="325.0" y1="0" x2="325.0" y2="475" stroke="#ccc" stroke-width="0.4"/>
<line x1="350.0" y1="0" x2="350.0" y2="475" stroke="#ccc" stroke-width="0.4"/>
<line x1="375.0" y1="0" x2="375.0" y2="475" stroke="#ccc" stroke-width="0.4"/>
<line x1="400.0" y1="0" x2="400.0" y2="475" stroke="#ccc" stroke-width="0.4"/>
<line x1="425.0" y1="0" x2="425.0" y2="475" stroke="#ccc" stroke-width="0.8"/>
<line x1="450.0" y1="0" x2="450.0" y2="475" stroke="#ccc" stroke-width="0.4"/>
<line x1="0" y1="475.0" x2="450" y2="475.0" stroke="#ccc" stroke-width="0.4"/>
<line x1="0" y1="450.0" x2="450" y2="450.0" stroke="#ccc" stroke-width="0.4"/>
<line x1="0" y1="425.0" x2="450" y2="425.0" stroke="#ccc" stroke-width="0.8"/>
<line x1="0" y1="400.0" x2="450" y2="400.0" stroke="#ccc" stroke-width="0.4"/>
<line x1="0" y1="375.0" x2="450" y2="375.0" stroke="#ccc" stroke-width="0.4"/>
<line x1="0" y1="350.0" x2="450" y2="350.0" stroke="#ccc" stroke-width="0.4"/>
<line x1="0" y1="325.0" x2="450" y2="325.0" stroke="#ccc" stroke-width="0.4"/>
<line x1="0" y1="300.0" x2="450" y2="300.0" stroke="#ccc" stroke-width="0.8"/>
<line x1="0" y1="275.0" x2="450" y2="275.0" stroke="#ccc" stroke-width="0.4"/>
<line x1="0" y1="250.0" x2="450" y2="250.0" stroke="#ccc" stroke-width="0.4"/>
<line x1="0" y1="225.0" x2="450" y2="225.0" stroke="#ccc" stroke-width="0.4"/>
<line x1="0" y1="200.0" x2="450" y2="200.0" stroke="#ccc" stroke-width="0.4"/>
<line x1="0" y1="175.0" x2="450" y2="175.0" stroke="#ccc" stroke-width="0.8"/>
<line x1="0" y1="150.0" x2="450" y2="150.0" stroke="#ccc" stroke-width="0.4"/>
<line x1="0" y1="125.0" x2="450" y2="125.0" stroke="#ccc" stroke-width="0.4"/>
<line x1="0" y1="100.0" x2="450" y2="100.0" stroke="#ccc" stroke-width="0.4"/>
<line x1="0" y1="75.0" x2="450" y2="75.0" stroke="#ccc" stroke-width="0.4"/>
<line x1="0" y1="50.0" x2="450" y2="50.0" stroke="#ccc" stroke-width="0.8"/>
<line x1="0" y1="25.0" x2="450" y2="25.0" stroke="#ccc" stroke-width="0.4"/>
<line x1="0" y1="0.0" x2="450" y2="0.0" stroke="#ccc" stroke-width="0.4"/>
<polyline points="50.0,375.0 50.0,50.0 227.75,50.0 227.75,150.0 307.5,150.0 307.5,50.0 397.5,50.0 397.5,305.0 400.0,305.0 400.0,425.0 125.0,425.0 125.0,375.0 50.0,375.0" fill="#222" fill-opacity="0.2" stroke="#222" stroke-width="1.5" stroke-linejoin="round"/>
<text x="397.5" y="47.0" fill="#666" font-size="8">S1</text>
<line x1="50.0" y1="200.0" x2="227.75" y2="200.0" stroke="#222" stroke-width="1.5" stroke-linecap="round"/>
<text x="138.875" y="197.0" fill="#666" font-size="8">S2</text>
<line x1="227.75" y1="237.5" x2="227.75" y2="50.0" stroke="#222" stroke-width="1.5" stroke-linecap="round"/>
<text x="227.75" y="140.75" fill="#666" font-size="8">S3</text>
<line x1="227.75" y1="150.0" x2="307.5" y2="150.0" stroke="#222" stroke-width="1.5" stroke-linecap="round"/>
<text x="267.625" y="147.0" fill="#666" font-size="8">S4</text>
<line x1="307.5" y1="150.0" x2="307.5" y2="50.0" stroke="#222" stroke-width="1.5" stroke-linecap="round"/>
<text x="307.5" y="97.0" fill="#666" font-size="8">S5</text>
<line x1="307.5" y1="175.0" x2="397.5" y2="175.0" stroke="#222" stroke-width="1.5" stroke-linecap="round"/>
<text x="352.50000000000006" y="172.0" fill="#666" font-size="8">S6</text>
<line x1="227.75" y1="237.5" x2="397.5" y2="237.5" stroke="#222" stroke-width="1.5" stroke-linecap="round"/>
<text x="312.625" y="234.5" fill="#666" font-size="8">S7</text>
<line x1="254.5" y1="237.5" x2="254.5" y2="150.0" stroke="#222" stroke-width="1.5" stroke-linecap="round"/>
<text x="254.5" y="190.75" fill="#666" font-size="8">S8</text>
<line x1="200.0" y1="425.0" x2="287.5" y2="425.0" stroke="#1f77b4" stroke-width="1.5" stroke-linecap="round"/>
<text x="243.75" y="422.0" fill="#666" font-size="8">S20</text>
<line x1="137.5" y1="50.0" x2="307.5" y2="50.0" stroke="#2ca02c" stroke-width="0.6" stroke-dasharray="3,2"/>
<text x="222.5" y="50.0" fill="#2ca02c">6.80</text>
<line x1="137.5" y1="167.5" x2="137.5" y2="50.0" stroke="#2ca02c" stroke-width="0.6" stroke-dasharray="3,2"/>
<text x="137.5" y="108.75" fill="#2ca02c">4.68</text>
<line x1="307.5" y1="52.50000000000006" x2="397.5" y2="52.50000000000006" stroke="#2ca02c" stroke-width="0.6" stroke-dasharray="3,2"/>
<text x="352.50000000000006" y="52.50000000000006" fill="#2ca02c">3.63</text>
<line x1="397.5" y1="175.0" x2="397.5" y2="52.50000000000006" stroke="#2ca02c" stroke-width="0.6" stroke-dasharray="3,2"/>
<text x="397.5" y="113.75" fill="#2ca02c">4.92</text>
<line x1="307.5" y1="175.0" x2="307.5" y2="58.0" stroke="#2ca02c" stroke-width="0.6" stroke-dasharray="3,2"/>
<text x="307.5" y="116.5" fill="#2ca02c">4.68</text>
<line x1="50.0" y1="50.0" x2="227.75" y2="50.0" stroke="#2ca02c" stroke-width="0.6" stroke-dasharray="3,2"/>
<text x="138.875" y="50.0" fill="#2ca02c">7.11</text>
<line x1="50.0" y1="200.0" x2="50.0" y2="50.0" stroke="#2ca02c" stroke-width="0.6" stroke-dasharray="3,2"/>
<text x="50.0" y="125.0" fill="#2ca02c">6.00</text>
<line x1="397.5" y1="305.0" x2="397.5" y2="175.0" stroke="#2ca02c" stroke-width="0.6" stroke-dasharray="3,2"/>
<text x="397.5" y="240.0" fill="#2ca02c">5.18</text>
<line x1="254.5" y1="170.0" x2="397.5" y2="170.0" stroke="#2ca02c" stroke-width="0.6" stroke-dasharray="3,2"/>
<text x="326.0" y="170.0" fill="#2ca02c">8.18</text>
<line x1="50.0" y1="375.0" x2="50.0" y2="200.0" stroke="#2ca02c" stroke-width="0.6" stroke-dasharray="3,2"/>
<text x="50.0" y="287.5" fill="#2ca02c">7.00</text>
<line x1="50.0" y1="425.0" x2="50.0" y2="50.0" stroke="#2ca02c" stroke-width="0.6" stroke-dasharray="3,2"/>
<text x="50.0" y="237.5" fill="#2ca02c">15.00</text>
<line x1="400.0" y1="425.0" x2="400.0" y2="237.5" stroke="#2ca02c" stroke-width="0.6" stroke-dasharray="3,2"/>
<text x="400.0" y="331.25" fill="#2ca02c">7.50</text>
<line x1="125.0" y1="425.0" x2="400.0" y2="425.0" stroke="#2ca02c" stroke-width="0.6" stroke-dasharray="3,2"/>
<text x="262.5" y="425.0" fill="#2ca02c">11.00</text>
<text x="220.00000000000003" y="112.5" fill="#9467bd" font-style="italic">HABITACIÓ
N
31.8 m²</text>
<text x="350.0" y="115.0" fill="#9467bd" font-style="italic">HABITACIÓ
N
22.6 m²</text>
<text x="325.0" y="220.00000000000003" fill="#9467bd" font-style="italic">HABITACIÓ
N
31.7 m²</text>
<text x="137.5" y="125.0" fill="#9467bd" font-style="italic">HABITACIÓ
N
42.7 m²</text>
<text x="137.5" y="287.5" fill="#9467bd" font-style="italic">HABITACIÓ
N
49.8 m²</text>
<text x="262.5" y="337.5" fill="#9467bd" font-style="italic">RECEPCIÓ
N
104 m²</text>
<g transform="translate(6,365)">
<rect x="0" y="0" width="10" height="10" fill="#222"/>
<text x="14" y="9" fill="#333">wall (plan)</text>
<rect x="0" y="12" width="10" height="10" fill="#999"/>
<text x="14" y="21" fill="#333">wall_fill (elev)</text>
<rect x="0" y="24" width="10" height="10" fill="#1f77b4"/>
<text x="14" y="33" fill="#333">window</text>
<rect x="0" y="36" width="10" height="10" fill="#000"/>
<text x="14" y="45" fill="#333">outline</text>
<rect x="0" y="48" width="10" height="10" fill="#8c564b"/>
<text x="14" y="57" fill="#333">stair</text>
<rect x="0" y="60" width="10" height="10" fill="#aaa"/>
<text x="14" y="69" fill="#333">other</text>
<rect x="0" y="72" width="10" height="10" fill="#2ca02c"/>
<text x="14" y="81" fill="#333">dimension</text>
<rect x="0" y="84" width="10" height="10" fill="#9467bd"/>
<text x="14" y="93" fill="#333">ocr</text>
</g>
</svg>