<svg xmlns="http://www.w3.org/2000/svg" width="350" height="212" viewBox="0 0 350 212" font-family="monospace" font-size="10">
<rect width="100%" height="100%" fill="#fafafa"/>
<text x="6" y="14" fill="#333">image_kind=elevation | North elevation</text>
<line x1="0.0" y1="0" x2="0.0" y2="212" stroke="#ccc" stroke-width="0.4"/>
<line x1="25.0" y1="0" x2="25.0" y2="212" stroke="#ccc" stroke-width="0.4"/>
<line x1="50.0" y1="0" x2="50.0" y2="212" stroke="#ccc" stroke-width="0.8"/>
<line x1="75.0" y1="0" x2="75.0" y2="212" stroke="#ccc" stroke-width="0.4"/>
<line x1="100.0" y1="0" x2="100.0" y2="212" stroke="#ccc" stroke-width="0.4"/>
<line x1="125.0" y1="0" x2="125.0" y2="212" stroke="#ccc" stroke-width="0.4"/>
<line x1="150.0" y1="0" x2="150.0" y2="212" stroke="#ccc" stroke-width="0.4"/>
<line x1="175.0" y1="0" x2="175.0" y2="212" stroke="#ccc" stroke-width="0.8"/>
<line x1="200.0" y1="0" x2="200.0" y2="212" stroke="#ccc" stroke-width="0.4"/>
<line x1="225.0" y1="0" x2="225.0" y2="212" stroke="#ccc" stroke-width="0.4"/>
<line x1="250.0" y1="0" x2="250.0" y2="212" stroke="#ccc" stroke-width="0.4"/>
<line x1="275.0" y1="0" x2="275.0" y2="212" stroke="#ccc" stroke-width="0.4"/>
<line x1="300.0" y1="0" x2="300.0" y2="212" stroke="#ccc" stroke-width="0.8"/>
<line x1="325.0" y1="0" x2="325.0" y2="212" stroke="#ccc" stroke-width="0.4"/>
<line x1="350.0" y1="0" x2="350.0" y2="212" stroke="#ccc" stroke-width="0.4"/>
<line x1="0" y1="212.0" x2="350" y2="212.0" stroke="#ccc" stroke-width="0.4"/>
<line x1="0" y1="187.0" x2="350" y2="187.0" stroke="#ccc" stroke-width="0.4"/>
<line x1="0" y1="162.0" x2="350" y2="162.0" stroke="#ccc" stroke-width="0.8"/>
<line x1="0" y1="137.0" x2="350" y2="137.0" stroke="#ccc" stroke-width="0.4"/>
<line x1="0" y1="112.0" x2="350" y2="112.0" stroke="#ccc" stroke-width="0.4"/>
<line x1="0" y1="87.0" x2="350" y2="87.0" stroke="#ccc" stroke-width="0.4"/>
<line x1="0" y1="62.0" x2="350" y2="62.0" stroke="#ccc" stroke-width="0.4"/>
<line x1="0" y1="37.0" x2="350" y2="37.0" stroke="#ccc" stroke-width="0.8"/>
<line x1="0" y1="12.0" x2="350" y2="12.0" stroke="#ccc" stroke-width="0.4"/>
<rect x="50.0" y="49.5" width="250.0" height="112.5" fill="#999" fill-opacity="0.45" stroke="#999" stroke-width="1"/>
<text x="52.0" y="59.5" fill="#999" font-size="9">S1 (wall_fill)</text>
<rect x="63.5" y="77.0" width="120.0" height="60.0" fill="#1f77b4" fill-opacity="0.45" stroke="#1f77b4" stroke-width="1"/>
<text x="65.5" y="87.0" fill="#1f77b4" font-size="9">S2 (window)</text>
<line x1="50.0" y1="49.5" x2="300.0" y2="49.5" stroke="#2ca02c" stroke-width="0.6" stroke-dasharray="3,2"/>
<text x="175.0" y="49.5" fill="#2ca02c">10000</text>
<line x1="50.0" y1="162.0" x2="300.0" y2="162.0" stroke="#2ca02c" stroke-width="0.6" stroke-dasharray="3,2"/>
<text x="175.0" y="162.0" fill="#2ca02c">10000</text>
<line x1="50.0" y1="162.0" x2="63.5" y2="162.0" stroke="#2ca02c" stroke-width="0.6" stroke-dasharray="3,2"/>
<text x="56.75" y="162.0" fill="#2ca02c">540</text>
<line x1="63.5" y1="162.0" x2="183.5" y2="162.0" stroke="#2ca02c" stroke-width="0.6" stroke-dasharray="3,2"/>
<text x="123.49999999999999" y="162.0" fill="#2ca02c">4800</text>
<line x1="183.5" y1="162.0" x2="246.5" y2="162.0" stroke="#2ca02c" stroke-width="0.6" stroke-dasharray="3,2"/>
<text x="215.0" y="162.0" fill="#2ca02c">2520</text>
<line x1="246.5" y1="162.0" x2="286.5" y2="162.0" stroke="#2ca02c" stroke-width="0.6" stroke-dasharray="3,2"/>
<text x="266.5" y="162.0" fill="#2ca02c">1600</text>
<line x1="286.5" y1="162.0" x2="300.0" y2="162.0" stroke="#2ca02c" stroke-width="0.6" stroke-dasharray="3,2"/>
<text x="293.25" y="162.0" fill="#2ca02c">540</text>
<line x1="50.0" y1="162.0" x2="50.0" y2="49.5" stroke="#2ca02c" stroke-width="0.6" stroke-dasharray="3,2"/>
<text x="50.0" y="105.75" fill="#2ca02c">4500</text>
<line x1="50.0" y1="162.0" x2="50.0" y2="137.0" stroke="#2ca02c" stroke-width="0.6" stroke-dasharray="3,2"/>
<text x="50.0" y="149.5" fill="#2ca02c">1000</text>
<line x1="50.0" y1="137.0" x2="50.0" y2="77.0" stroke="#2ca02c" stroke-width="0.6" stroke-dasharray="3,2"/>
<text x="50.0" y="107.0" fill="#2ca02c">2400</text>
<line x1="50.0" y1="77.0" x2="50.0" y2="49.5" stroke="#2ca02c" stroke-width="0.6" stroke-dasharray="3,2"/>
<text x="50.0" y="63.25" fill="#2ca02c">1100</text>
<line x1="300.0" y1="162.0" x2="300.0" y2="49.5" stroke="#2ca02c" stroke-width="0.6" stroke-dasharray="3,2"/>
<text x="300.0" y="105.75" fill="#2ca02c">4500</text>
<line x1="286.5" y1="162.0" x2="286.5" y2="157.0" stroke="#2ca02c" stroke-width="0.6" stroke-dasharray="3,2"/>
<text x="286.5" y="159.5" fill="#2ca02c">200</text>
<line x1="286.5" y1="157.0" x2="286.5" y2="97.00000000000001" stroke="#2ca02c" stroke-width="0.6" stroke-dasharray="3,2"/>
<text x="286.5" y="126.99999999999999" fill="#2ca02c">2400</text>
<line x1="286.5" y1="97.00000000000001" x2="286.5" y2="49.5" stroke="#2ca02c" stroke-width="0.6" stroke-dasharray="3,2"/>
<text x="286.5" y="73.25" fill="#2ca02c">1900</text>
<g transform="translate(6,102)">
<rect x="0" y="0" width="10" height="10" fill="#222"/>
<text x="14" y="9" fill="#333">wall (plan)</text>
<rect x="0" y="12" width="10" height="10" fill="#999"/>
<text x="14" y="21" fill="#333">wall_fill (elev)</text>
<rect x="0" y="24" width="10" height="10" fill="#1f77b4"/>
<text x="14" y="33" fill="#333">window</text>
<rect x="0" y="36" width="10" height="10" fill="#000"/>
<text x="14" y="45" fill="#333">outline</text>
<rect x="0" y="48" width="10" height="10" fill="#8c564b"/>
<text x="14" y="57" fill="#333">stair</text>
<rect x="0" y="60" width="10" height="10" fill="#aaa"/>
<text x="14" y="69" fill="#333">other</text>
<rect x="0" y="72" width="10" height="10" fill="#2ca02c"/>
<text x="14" y="81" fill="#333">dimension</text>
<rect x="0" y="84" width="10" height="10" fill="#9467bd"/>
<text x="14" y="93" fill="#333">ocr</text>
</g>
</svg>